<svg width="17" height="17" viewBox="0 0 17 17" fill="none" xmlns="http://www.w3.org/2000/svg">
<path d="M5.32693 8.5C5.64556 8.5 5.90385 8.2417 5.90385 7.92308C5.90385 7.60445 5.64556 7.34615 5.32693 7.34615C5.0083 7.34615 4.75001 7.60445 4.75001 7.92308C4.75001 8.2417 5.0083 8.5 5.32693 8.5Z" stroke="#B8B8B8" stroke-linecap="round" stroke-linejoin="round"/>
<path d="M9.07692 8.5C9.39555 8.5 9.65384 8.2417 9.65384 7.92308C9.65384 7.60445 9.39555 7.34615 9.07692 7.34615C8.75829 7.34615 8.5 7.60445 8.5 7.92308C8.5 8.2417 8.75829 8.5 9.07692 8.5Z" stroke="#B8B8B8" stroke-linecap="round" stroke-linejoin="round"/>
<path d="M12.8269 8.5C13.1456 8.5 13.4039 8.2417 13.4039 7.92308C13.4039 7.60445 13.1456 7.34615 12.8269 7.34615C12.5083 7.34615 12.25 7.60445 12.25 7.92308C12.25 8.2417 12.5083 8.5 12.8269 8.5Z" stroke="#B8B8B8" stroke-linecap="round" stroke-linejoin="round"/>
<path d="M5.61538 14.8462L1 16L2.15385 12.5385V2.15385C2.15385 1.84783 2.27541 1.55434 2.4918 1.33795C2.70819 1.12157 3.00167 1 3.30769 1H14.8462C15.1522 1 15.4457 1.12157 15.662 1.33795C15.8784 1.55434 16 1.84783 16 2.15385V13.6923C16 13.9983 15.8784 14.2918 15.662 14.5082C15.4457 14.7246 15.1522 14.8462 14.8462 14.8462H5.61538Z" stroke="#B8B8B8" stroke-linecap="round" stroke-linejoin="round"/>
</svg>
