<svg width="17" height="17" viewBox="0 0 17 17" fill="none" xmlns="http://www.w3.org/2000/svg">
<path d="M5.61538 1H2.15385C1.51659 1 1 1.51659 1 2.15385V5.61538C1 6.25264 1.51659 6.76923 2.15385 6.76923H5.61538C6.25264 6.76923 6.76923 6.25264 6.76923 5.61538V2.15385C6.76923 1.51659 6.25264 1 5.61538 1Z" stroke="#B8B8B8" stroke-linecap="round" stroke-linejoin="round"/>
<path d="M14.8462 1H11.3846C10.7474 1 10.2308 1.51659 10.2308 2.15385V5.61538C10.2308 6.25264 10.7474 6.76923 11.3846 6.76923H14.8462C15.4834 6.76923 16 6.25264 16 5.61538V2.15385C16 1.51659 15.4834 1 14.8462 1Z" stroke="#B8B8B8" stroke-linecap="round" stroke-linejoin="round"/>
<path d="M5.61538 10.2308H2.15385C1.51659 10.2308 1 10.7474 1 11.3846V14.8461C1 15.4834 1.51659 16 2.15385 16H5.61538C6.25264 16 6.76923 15.4834 6.76923 14.8461V11.3846C6.76923 10.7474 6.25264 10.2308 5.61538 10.2308Z" stroke="#B8B8B8" stroke-linecap="round" stroke-linejoin="round"/>
<path d="M14.8462 10.2308H11.3846C10.7474 10.2308 10.2308 10.7474 10.2308 11.3846V14.8461C10.2308 15.4834 10.7474 16 11.3846 16H14.8462C15.4834 16 16 15.4834 16 14.8461V11.3846C16 10.7474 15.4834 10.2308 14.8462 10.2308Z" stroke="#B8B8B8" stroke-linecap="round" stroke-linejoin="round"/>
</svg>
