<svg width="17" height="17" viewBox="0 0 17 17" fill="none" xmlns="http://www.w3.org/2000/svg">
<path d="M2.15385 7.34613H3.30769C3.4607 7.34613 3.60744 7.40691 3.71564 7.51511C3.82383 7.6233 3.88462 7.77004 3.88462 7.92305V10.8077C3.88462 10.9607 3.82383 11.1074 3.71564 11.2156C3.60744 11.3238 3.4607 11.3846 3.30769 11.3846H2.15385C1.84783 11.3846 1.55434 11.263 1.33795 11.0466C1.12157 10.8302 1 10.5368 1 10.2307V8.49998C1 8.19396 1.12157 7.90047 1.33795 7.68408C1.55434 7.4677 1.84783 7.34613 2.15385 7.34613V7.34613Z" stroke="#B8B8B8" stroke-linecap="round" stroke-linejoin="round"/>
<path d="M14.8461 11.3846H13.6923C13.5393 11.3846 13.3925 11.3238 13.2844 11.2156C13.1762 11.1074 13.1154 10.9607 13.1154 10.8077V7.92307C13.1154 7.77007 13.1762 7.62332 13.2844 7.51513C13.3925 7.40693 13.5393 7.34615 13.6923 7.34615H14.8461C15.1522 7.34615 15.4457 7.46772 15.662 7.68411C15.8784 7.90049 16 8.19398 16 8.5V10.2308C16 10.5368 15.8784 10.8303 15.662 11.0467C15.4457 11.263 15.1522 11.3846 14.8461 11.3846V11.3846Z" stroke="#B8B8B8" stroke-linecap="round" stroke-linejoin="round"/>
<path d="M11.3846 14.5577C11.9967 14.5577 12.5836 14.3146 13.0164 13.8818C13.4492 13.449 13.6923 12.862 13.6923 12.25V11.3846" stroke="#B8B8B8" stroke-linecap="round" stroke-linejoin="round"/>
<path d="M9.94231 13.1154C10.3248 13.1154 10.6917 13.2673 10.9622 13.5378C11.2327 13.8083 11.3846 14.1752 11.3846 14.5577C11.3846 14.9402 11.2327 15.3071 10.9622 15.5776C10.6917 15.848 10.3248 16 9.94231 16H8.21154C7.82901 16 7.46216 15.848 7.19167 15.5776C6.92119 15.3071 6.76923 14.9402 6.76923 14.5577C6.76923 14.1752 6.92119 13.8083 7.19167 13.5378C7.46216 13.2673 7.82901 13.1154 8.21154 13.1154H9.94231Z" stroke="#B8B8B8" stroke-linecap="round" stroke-linejoin="round"/>
<path d="M3.30769 7.34615V6.19231C3.30769 4.81522 3.85474 3.49454 4.82849 2.52079C5.80223 1.54705 7.12292 1 8.5 1C9.87709 1 11.1978 1.54705 12.1715 2.52079C13.1453 3.49454 13.6923 4.81522 13.6923 6.19231V7.34615" stroke="#B8B8B8" stroke-linecap="round" stroke-linejoin="round"/>
<path d="M6.76923 5.03845V6.76922" stroke="#B8B8B8" stroke-linecap="round" stroke-linejoin="round"/>
<path d="M10.2308 5.03845V6.76922" stroke="#B8B8B8" stroke-linecap="round" stroke-linejoin="round"/>
<path d="M6.76923 9.07693C6.76923 10.6116 10.2308 10.6116 10.2308 9.07693" stroke="#B8B8B8" stroke-linecap="round" stroke-linejoin="round"/>
</svg>
