<svg width="16" height="16" viewBox="0 0 16 16" fill="none" xmlns="http://www.w3.org/2000/svg">
<path d="M6.19231 6.19231C7.62613 6.19231 8.78847 5.02997 8.78847 3.59615C8.78847 2.16234 7.62613 1 6.19231 1C4.75849 1 3.59616 2.16234 3.59616 3.59615C3.59616 5.02997 4.75849 6.19231 6.19231 6.19231Z" stroke="#B8B8B8" stroke-linecap="round" stroke-linejoin="round"/>
<path d="M11.3846 14.8462H1V13.6923C1 12.3152 1.54705 10.9945 2.52079 10.0208C3.49454 9.04705 4.81522 8.5 6.19231 8.5C7.56939 8.5 8.89008 9.04705 9.86382 10.0208C10.8376 10.9945 11.3846 12.3152 11.3846 13.6923V14.8462Z" stroke="#B8B8B8" stroke-linecap="round" stroke-linejoin="round"/>
<path d="M9.80771 1C10.4963 1 11.1566 1.27352 11.6435 1.7604C12.1303 2.24727 12.4039 2.90761 12.4039 3.59615C12.4039 4.2847 12.1303 4.94504 11.6435 5.43191C11.1566 5.91879 10.4963 6.19231 9.80771 6.19231" stroke="#B8B8B8" stroke-linecap="round" stroke-linejoin="round"/>
<path d="M11.6538 8.71923C12.6367 9.09313 13.4829 9.75667 14.0804 10.622C14.6779 11.4874 14.9986 12.5138 15 13.5654V14.8462H13.2692" stroke="#B8B8B8" stroke-linecap="round" stroke-linejoin="round"/>
</svg>
