<svg width="25" height="25" viewBox="0 0 25 25" fill="none" xmlns="http://www.w3.org/2000/svg">
<path d="M7.85713 13H6.14284C5.19607 13 4.42856 13.7675 4.42856 14.7143V21.5714C4.42856 22.5182 5.19607 23.2857 6.14284 23.2857H7.85713C8.8039 23.2857 9.57142 22.5182 9.57142 21.5714V14.7143C9.57142 13.7675 8.8039 13 7.85713 13Z" stroke="url(#paint0_linear_7_906)" stroke-width="2" stroke-linecap="round" stroke-linejoin="round"/>
<path d="M18.1429 13H16.4286C15.4818 13 14.7143 13.7675 14.7143 14.7143V21.5714C14.7143 22.5182 15.4818 23.2857 16.4286 23.2857H18.1429C19.0896 23.2857 19.8572 22.5182 19.8572 21.5714V14.7143C19.8572 13.7675 19.0896 13 18.1429 13Z" stroke="url(#paint1_linear_7_906)" stroke-width="2" stroke-linecap="round" stroke-linejoin="round"/>
<path d="M1 16.4286V12.1429C1 9.18759 2.17398 6.35336 4.26367 4.26367C6.35336 2.17398 9.18759 1 12.1429 1C15.0981 1 17.9324 2.17398 20.022 4.26367C22.1117 6.35336 23.2857 9.18759 23.2857 12.1429V16.4286" stroke="url(#paint2_linear_7_906)" stroke-width="2" stroke-linecap="round" stroke-linejoin="round"/>
<defs>
<linearGradient id="paint0_linear_7_906" x1="3.76549" y1="11.4176" x2="11.2504" y2="11.6471" gradientUnits="userSpaceOnUse">
<stop stop-color="#B5179E"/>
<stop offset="1" stop-color="#7209B7"/>
</linearGradient>
<linearGradient id="paint1_linear_7_906" x1="14.0512" y1="11.4176" x2="21.5361" y2="11.6471" gradientUnits="userSpaceOnUse">
<stop stop-color="#B5179E"/>
<stop offset="1" stop-color="#7209B7"/>
</linearGradient>
<linearGradient id="paint2_linear_7_906" x1="-1.87331" y1="-1.37363" x2="30.3389" y2="1.47955" gradientUnits="userSpaceOnUse">
<stop stop-color="#B5179E"/>
<stop offset="1" stop-color="#7209B7"/>
</linearGradient>
</defs>
</svg>
