<svg width="20" height="25" viewBox="0 0 20 25" fill="none" xmlns="http://www.w3.org/2000/svg">
<path d="M5.28571 23.2857C7.65265 23.2857 9.57143 21.3669 9.57143 19C9.57143 16.6331 7.65265 14.7143 5.28571 14.7143C2.91878 14.7143 1 16.6331 1 19C1 21.3669 2.91878 23.2857 5.28571 23.2857Z" stroke="url(#paint0_linear_7_883)" stroke-width="2" stroke-linecap="round" stroke-linejoin="round"/>
<path d="M9.57144 19V1C10.8096 1 12.0357 1.24388 13.1796 1.71771C14.3235 2.19154 15.3629 2.88604 16.2384 3.76156C17.114 4.63709 17.8085 5.67649 18.2823 6.82041C18.7561 7.96434 19 9.19039 19 10.4286V10.4286" stroke="url(#paint1_linear_7_883)" stroke-width="2" stroke-linecap="round" stroke-linejoin="round"/>
<defs>
<linearGradient id="paint0_linear_7_883" x1="-0.105121" y1="13.3956" x2="12.3346" y2="14.1584" gradientUnits="userSpaceOnUse">
<stop stop-color="#B5179E"/>
<stop offset="1" stop-color="#7209B7"/>
</linearGradient>
<linearGradient id="paint1_linear_7_883" x1="8.35581" y1="-1.76924" x2="22.0768" y2="-1.32851" gradientUnits="userSpaceOnUse">
<stop stop-color="#B5179E"/>
<stop offset="1" stop-color="#7209B7"/>
</linearGradient>
</defs>
</svg>
