<svg width="25" height="25" viewBox="0 0 25 25" fill="none" xmlns="http://www.w3.org/2000/svg">
<path d="M12.1429 1C14.0933 1 15.9639 1.77482 17.3431 3.15402C18.7223 4.53322 19.4971 6.40381 19.4971 8.35429C19.4971 16.5314 22.48 18.1429 23.2857 18.1429H1C1.82286 18.1429 4.78857 16.5143 4.78857 8.35429C4.78857 6.40381 5.5634 4.53322 6.94259 3.15402C8.32179 1.77482 10.1924 1 12.1429 1V1Z" stroke="#B8B8B8" stroke-width="1.5" stroke-linecap="round" stroke-linejoin="round"/>
<path d="M9.57141 21.28C9.7196 21.8492 10.0524 22.3531 10.5178 22.7128C10.9831 23.0725 11.5547 23.2677 12.1428 23.2677C12.731 23.2677 13.3025 23.0725 13.7679 22.7128C14.2332 22.3531 14.5661 21.8492 14.7143 21.28" stroke="#B8B8B8" stroke-width="1.5" stroke-linecap="round" stroke-linejoin="round"/>
</svg>
