<svg width="39" height="39" viewBox="0 0 39 39" fill="none" xmlns="http://www.w3.org/2000/svg">
<path d="M1.19695 22.6845C0.695284 22.7718 0.357164 23.2498 0.468057 23.7468C1.10205 26.5881 2.3652 29.2555 4.16902 31.5504C6.16302 34.0872 8.75538 36.0896 11.7137 37.378C14.672 38.6664 17.9038 39.2006 21.1194 38.9326C24.335 38.6647 27.4338 37.6029 30.138 35.8426C32.8423 34.0823 35.0675 31.6785 36.6141 28.8466C38.1607 26.0147 38.9804 22.8432 38.9997 19.6166C39.0189 16.3899 38.2372 13.2089 36.7246 10.3587C35.3562 7.78034 33.4284 5.54562 31.0869 3.81582C30.6774 3.51325 30.1033 3.62893 29.8205 4.05233C29.5376 4.47573 29.6532 5.04636 30.0612 5.35094C32.1498 6.90985 33.8705 8.91433 35.0958 11.2231C36.4654 13.8038 37.1732 16.684 37.1557 19.6055C37.1383 22.5271 36.3961 25.3986 34.9957 27.9627C33.5954 30.5269 31.5806 32.7034 29.1321 34.2972C26.6835 35.8911 23.8778 36.8524 20.9663 37.095C18.0548 37.3377 15.1286 36.854 12.45 35.6874C9.77142 34.5208 7.4242 32.7078 5.61875 30.4108C4.00352 28.3559 2.86709 25.971 2.28697 23.4303C2.17362 22.9338 1.69861 22.5972 1.19695 22.6845Z" fill="#DEDEDE"/>
<path d="M27.5 19.134C28.1667 19.5189 28.1667 20.4811 27.5 20.866L17 26.9282C16.3333 27.3131 15.5 26.832 15.5 26.0622L15.5 13.9378C15.5 13.168 16.3333 12.6869 17 13.0718L27.5 19.134Z" fill="#DEDEDE"/>
</svg>
