<svg width="25" height="25" viewBox="0 0 25 25" fill="none" xmlns="http://www.w3.org/2000/svg">
<path d="M10.6844 19.3431L14.425 23.0786C14.6572 23.3108 14.9449 23.4798 15.2608 23.5696C15.5766 23.6593 15.9102 23.6669 16.2299 23.5915C16.5495 23.5161 16.8445 23.3602 17.087 23.1388C17.3295 22.9173 17.5113 22.6375 17.6152 22.326L23.7541 3.89228C23.8675 3.55297 23.8841 3.18877 23.802 2.84056C23.7199 2.49234 23.5424 2.17389 23.2895 1.92092C23.0365 1.66795 22.718 1.49047 22.3698 1.4084C22.0216 1.32633 21.6574 1.34291 21.3181 1.45628L2.88439 7.60028C2.57386 7.70463 2.29507 7.88642 2.07434 8.12849C1.85361 8.37055 1.69825 8.66489 1.62292 8.98371C1.54759 9.30252 1.55479 9.63527 1.64384 9.95053C1.73288 10.2658 1.90083 10.5531 2.13182 10.7854L6.83068 15.4894L6.67125 21.4294L10.6844 19.3431Z" stroke="#7A7A7A" stroke-width="1.5" stroke-linecap="round" stroke-linejoin="round"/>
<path d="M23.204 1.84027L6.83081 15.4894" stroke="#7A7A7A" stroke-width="1.5" stroke-linecap="round" stroke-linejoin="round"/>
</svg>
