<svg width="25" height="25" viewBox="0 0 25 25" fill="none" xmlns="http://www.w3.org/2000/svg">
<path d="M5.14279 16.3571C7.27303 16.3571 8.99993 14.6302 8.99993 12.5C8.99993 10.3697 7.27303 8.64282 5.14279 8.64282C3.01255 8.64282 1.28564 10.3697 1.28564 12.5C1.28564 14.6302 3.01255 16.3571 5.14279 16.3571Z" stroke="#7A7A7A" stroke-width="1.5" stroke-linecap="round" stroke-linejoin="round"/>
<path d="M19.7143 23.6428C21.8446 23.6428 23.5715 21.9159 23.5715 19.7857C23.5715 17.6554 21.8446 15.9285 19.7143 15.9285C17.5841 15.9285 15.8572 17.6554 15.8572 19.7857C15.8572 21.9159 17.5841 23.6428 19.7143 23.6428Z" stroke="#7A7A7A" stroke-width="1.5" stroke-linecap="round" stroke-linejoin="round"/>
<path d="M19.7143 9.0714C21.8446 9.0714 23.5715 7.3445 23.5715 5.21426C23.5715 3.08402 21.8446 1.35712 19.7143 1.35712C17.5841 1.35712 15.8572 3.08402 15.8572 5.21426C15.8572 7.3445 17.5841 9.0714 19.7143 9.0714Z" stroke="#7A7A7A" stroke-width="1.5" stroke-linecap="round" stroke-linejoin="round"/>
<path d="M8.58862 10.7857L16.2686 6.92853" stroke="#7A7A7A" stroke-width="1.5" stroke-linecap="round" stroke-linejoin="round"/>
<path d="M8.58862 14.2142L16.2686 18.0714" stroke="#7A7A7A" stroke-width="1.5" stroke-linecap="round" stroke-linejoin="round"/>
</svg>
