<svg width="25" height="25" viewBox="0 0 25 25" fill="none" xmlns="http://www.w3.org/2000/svg">
<path d="M12.1429 23.6428C18.297 23.6428 23.2857 18.6541 23.2857 12.5C23.2857 6.34595 18.297 1.35712 12.1429 1.35712C5.98883 1.35712 1 6.34595 1 12.5C1 18.6541 5.98883 23.6428 12.1429 23.6428Z" stroke="#7A7A7A" stroke-width="1.5" stroke-linecap="round" stroke-linejoin="round"/>
<path d="M6.48584 14.2143C7.34298 17.3 10.7716 19.1857 13.8573 18.3286C15.743 17.6429 17.2858 16.1 17.8001 14.2143" stroke="#7A7A7A" stroke-width="1.5" stroke-linecap="round" stroke-linejoin="round"/>
<path d="M8.37144 9.84286C8.13475 9.84286 7.94287 9.65098 7.94287 9.41429C7.94287 9.1776 8.13475 8.98572 8.37144 8.98572" stroke="#7A7A7A" stroke-width="1.5" stroke-linecap="round" stroke-linejoin="round"/>
<path d="M8.37134 9.84286C8.60803 9.84286 8.79991 9.65098 8.79991 9.41429C8.79991 9.1776 8.60803 8.98572 8.37134 8.98572" stroke="#7A7A7A" stroke-width="1.5" stroke-linecap="round" stroke-linejoin="round"/>
<path d="M15.9144 9.84286C15.6777 9.84286 15.4858 9.65098 15.4858 9.41429C15.4858 9.1776 15.6777 8.98572 15.9144 8.98572" stroke="#7A7A7A" stroke-width="1.5" stroke-linecap="round" stroke-linejoin="round"/>
<path d="M15.9143 9.84286C16.151 9.84286 16.3429 9.65098 16.3429 9.41429C16.3429 9.1776 16.151 8.98572 15.9143 8.98572" stroke="#7A7A7A" stroke-width="1.5" stroke-linecap="round" stroke-linejoin="round"/>
</svg>
