<svg width="4" height="16" viewBox="0 0 4 16" fill="none" xmlns="http://www.w3.org/2000/svg">
<path d="M1.84615 3.69231C2.86575 3.69231 3.69231 2.86575 3.69231 1.84615C3.69231 0.826551 2.86575 0 1.84615 0C0.826551 0 0 0.826551 0 1.84615C0 2.86575 0.826551 3.69231 1.84615 3.69231Z" fill="#B8B8B8"/>
<path d="M1.84615 9.84614C2.86575 9.84614 3.69231 9.01959 3.69231 7.99999C3.69231 6.98039 2.86575 6.15384 1.84615 6.15384C0.826551 6.15384 0 6.98039 0 7.99999C0 9.01959 0.826551 9.84614 1.84615 9.84614Z" fill="#B8B8B8"/>
<path d="M1.84615 16C2.86575 16 3.69231 15.1734 3.69231 14.1538C3.69231 13.1342 2.86575 12.3077 1.84615 12.3077C0.826551 12.3077 0 13.1342 0 14.1538C0 15.1734 0.826551 16 1.84615 16Z" fill="#B8B8B8"/>
</svg>
