<svg width="262" height="87" viewBox="0 0 262 87" fill="none" xmlns="http://www.w3.org/2000/svg">
<g clip-path="url(#clip0_8_15674)">
<path d="M240.269 0.00014528H20.9597C20.1603 0.00014528 19.3705 0.00014528 18.5732 0.00449311C17.9058 0.00884093 17.2437 0.0214714 16.5698 0.0321018C15.106 0.0492796 13.6456 0.177702 12.2013 0.416254C10.7591 0.659999 9.362 1.11953 8.05737 1.7793C6.75433 2.44465 5.5637 3.30921 4.52868 4.3416C3.48823 5.3711 2.62094 6.56105 1.96015 7.86571C1.29753 9.16777 0.838071 10.5631 0.597636 12.0034C0.354915 13.4419 0.224305 14.8969 0.206977 16.3555C0.186747 17.0221 0.18461 17.6908 0.17395 18.3574V68.6058C0.18461 69.2808 0.186747 69.9347 0.206977 70.6099C0.22431 72.0685 0.354921 73.5235 0.597636 74.9619C0.837407 76.403 1.29689 77.7991 1.96015 79.1017C2.62064 80.4021 3.48806 81.5872 4.52868 82.611C5.55978 83.648 6.75117 84.5131 8.05737 85.1734C9.36199 85.8349 10.7589 86.2972 12.2013 86.5447C13.6458 86.7813 15.1061 86.9098 16.5698 86.9291C17.2437 86.9438 17.9058 86.9523 18.5732 86.9523C19.3704 86.9567 20.1603 86.9567 20.9597 86.9567H240.269C241.053 86.9567 241.849 86.9567 242.633 86.9523C243.297 86.9523 243.978 86.9438 244.642 86.9291C246.103 86.9109 247.561 86.7824 249.002 86.5447C250.449 86.2955 251.851 85.8333 253.162 85.1734C254.467 84.5128 255.658 83.6476 256.688 82.611C257.726 81.5832 258.595 80.399 259.264 79.1017C259.922 77.7982 260.377 76.4022 260.613 74.9619C260.856 73.5233 260.992 72.0686 261.018 70.6099C261.026 69.9347 261.026 69.2808 261.026 68.6058C261.043 67.816 261.043 67.0306 261.043 66.228V20.7309C261.043 19.9348 261.043 19.145 261.026 18.3574C261.026 17.6908 261.026 17.0221 261.018 16.3554C260.992 14.8967 260.856 13.442 260.613 12.0033C260.376 10.5638 259.921 9.16863 259.264 7.86562C257.918 5.25057 255.784 3.12194 253.162 1.7791C251.851 1.12094 250.449 0.661537 249.002 0.416058C247.561 0.176456 246.103 0.0479882 244.642 0.0317975C243.978 0.0211888 243.297 0.00844963 242.633 0.0042105C241.849 -0.000137329 241.053 -0.000137329 240.269 -0.000137329V0.00014528Z" fill="black"/>
<path d="M18.5838 85.0543C17.9196 85.0543 17.2714 85.0459 16.6124 85.0311C15.2472 85.0133 13.8853 84.8948 12.5377 84.6765C11.2811 84.4607 10.0638 84.0593 8.92593 83.4854C7.79852 82.9164 6.77023 82.1702 5.88045 81.2754C4.9778 80.3912 4.22629 79.3657 3.65572 78.2396C3.07887 77.1061 2.67965 75.8911 2.47198 74.6369C2.2477 73.2894 2.12637 71.9268 2.109 70.5609C2.09518 70.1024 2.07709 68.5759 2.07709 68.5759V18.3572C2.07709 18.3572 2.09636 16.8542 2.10911 16.4126C2.12574 15.0489 2.24637 13.6884 2.46997 12.3429C2.67803 11.0853 3.07756 9.86683 3.65472 8.72962C4.22319 7.60421 4.97052 6.57794 5.86774 5.6906C6.76395 4.79482 7.79553 4.04478 8.92487 3.46783C10.0601 2.89584 11.2751 2.49723 12.5291 2.28536C13.8812 2.06485 15.2479 1.94563 16.6178 1.9287L18.5848 1.90216H242.622L244.612 1.92977C245.97 1.94585 247.324 2.06401 248.664 2.28323C249.931 2.49776 251.158 2.89915 252.306 3.4742C254.569 4.63691 256.41 6.47643 257.571 8.73492C258.139 9.86429 258.532 11.0728 258.738 12.3195C258.964 13.6761 259.091 15.0472 259.117 16.4222C259.123 17.0378 259.123 17.6991 259.123 18.3572C259.14 19.1725 259.14 19.9484 259.14 20.7307V66.2278C259.14 67.0176 259.14 67.7883 259.123 68.5652C259.123 69.2722 259.123 69.9198 259.115 70.5863C259.089 71.9367 258.965 73.2834 258.742 74.6156C258.539 75.8788 258.142 77.1033 257.565 78.2461C256.99 79.36 256.243 80.3767 255.351 81.2585C254.46 82.158 253.43 82.9086 252.3 83.4813C251.155 84.0595 249.929 84.4625 248.664 84.6765C247.316 84.896 245.954 85.0145 244.589 85.0311C243.95 85.0459 243.282 85.0543 242.633 85.0543L240.269 85.0587L18.5838 85.0543Z" fill="white"/>
<path d="M54.6672 43.2377C54.6916 41.3508 55.1942 39.5007 56.1283 37.8596C57.0623 36.2185 58.3975 34.8396 60.0095 33.8514C58.9854 32.3929 57.6344 31.1926 56.0638 30.3459C54.4932 29.4992 52.7462 29.0293 50.9616 28.9736C47.1548 28.5751 43.4642 31.2452 41.5243 31.2452C39.5469 31.2452 36.5601 29.0132 33.3439 29.0792C31.2635 29.1462 29.236 29.7494 27.459 30.8302C25.682 31.9109 24.216 33.4322 23.2038 35.2459C18.8196 42.8155 22.0898 53.9402 26.2897 60.0589C28.3909 63.0551 30.8467 66.4019 34.0601 66.2832C37.2045 66.1531 38.3789 64.2837 42.1745 64.2837C45.9349 64.2837 47.0367 66.2832 50.3153 66.2077C53.6894 66.1531 55.8153 63.1983 57.8429 60.1737C59.3526 58.0389 60.5144 55.6794 61.2851 53.1827C59.3248 52.3559 57.652 50.972 56.4751 49.2035C55.2983 47.435 54.6695 45.3601 54.6672 43.2377Z" fill="black"/>
<path d="M48.4746 24.9496C50.3144 22.7472 51.2207 19.9165 51.0013 17.0585C48.1906 17.3529 45.5943 18.6924 43.7297 20.8103C42.8181 21.8449 42.1198 23.0486 41.6749 24.3524C41.2301 25.6563 41.0472 27.0348 41.1369 28.4092C42.5428 28.4236 43.9336 28.1198 45.2046 27.5205C46.4756 26.9212 47.5937 26.0422 48.4746 24.9496Z" fill="black"/>
<path d="M92.3925 58.9992H82.0736L79.5956 66.2959H75.2249L84.9988 39.3002H89.5398L99.3137 66.2959H94.8685L92.3925 58.9992ZM83.1424 55.6322H91.3218L87.2896 43.7903H87.1767L83.1424 55.6322Z" fill="black"/>
<path d="M120.422 56.4559C120.422 62.5722 117.139 66.5018 112.185 66.5018C110.93 66.5672 109.682 66.279 108.584 65.67C107.486 65.061 106.582 64.1559 105.975 63.0583H105.881V72.8069H101.83V46.6139H105.752V49.8875H105.826C106.46 48.7952 107.38 47.8947 108.486 47.282C109.593 46.6693 110.846 46.3672 112.111 46.4079C117.12 46.4079 120.422 50.3566 120.422 56.4559ZM116.258 56.4559C116.258 52.4711 114.193 49.8514 111.042 49.8514C107.947 49.8514 105.864 52.5263 105.864 56.4559C105.864 60.4216 107.947 63.0774 111.042 63.0774C114.193 63.0774 116.258 60.4768 116.258 56.4559H116.258Z" fill="black"/>
<path d="M142.146 56.4559C142.146 62.5722 138.863 66.5018 133.909 66.5018C132.654 66.5672 131.406 66.279 130.307 65.67C129.209 65.061 128.305 64.1559 127.699 63.0583H127.605V72.8069H123.553V46.6139H127.475V49.8875H127.549C128.184 48.7952 129.103 47.8947 130.21 47.282C131.316 46.6693 132.569 46.3672 133.834 46.4079C138.843 46.4079 142.146 50.3566 142.146 56.4559ZM137.981 56.4559C137.981 52.4711 135.916 49.8514 132.765 49.8514C129.67 49.8514 127.588 52.5263 127.588 56.4559C127.588 60.4216 129.67 63.0774 132.765 63.0774C135.916 63.0774 137.981 60.4768 137.981 56.4559Z" fill="black"/>
<path d="M156.502 58.7741C156.802 61.4512 159.41 63.2089 162.974 63.2089C166.389 63.2089 168.845 61.4511 168.845 59.0373C168.845 56.9419 167.364 55.6873 163.855 54.8275L160.347 53.9846C155.376 52.7873 153.068 50.469 153.068 46.7071C153.068 42.0493 157.138 38.85 162.916 38.85C168.639 38.85 172.56 42.0493 172.692 46.7071H168.603C168.358 44.0131 166.124 42.3869 162.861 42.3869C159.597 42.3869 157.364 44.0322 157.364 46.4269C157.364 48.3354 158.79 49.4585 162.28 50.3182L165.262 51.0485C170.817 52.3584 173.122 54.5833 173.122 58.5319C173.122 63.5825 169.09 66.7457 162.673 66.7457C156.67 66.7457 152.616 63.6568 152.355 58.7739L156.502 58.7741Z" fill="black"/>
<path d="M181.87 41.9561V46.6138H185.623V49.8131H181.87V60.6636C181.87 62.3492 182.622 63.1347 184.272 63.1347C184.717 63.127 185.162 63.0958 185.604 63.0412V66.2214C184.862 66.3597 184.108 66.4223 183.354 66.4083C179.358 66.4083 177.8 64.9116 177.8 61.0945V49.8131H174.93V46.6138H177.8V41.9561H181.87Z" fill="black"/>
<path d="M187.795 56.4559C187.795 50.2632 191.452 46.3718 197.156 46.3718C202.878 46.3718 206.519 50.2631 206.519 56.4559C206.519 62.6656 202.897 66.54 197.156 66.54C191.416 66.54 187.795 62.6655 187.795 56.4559ZM202.391 56.4559C202.391 52.2078 200.439 49.7006 197.156 49.7006C193.873 49.7006 191.921 52.227 191.921 56.4559C191.921 60.7209 193.873 63.209 197.156 63.209C200.439 63.209 202.391 60.7209 202.391 56.4559H202.391Z" fill="black"/>
<path d="M209.859 46.6138H213.723V49.9638H213.817C214.078 48.9176 214.693 47.9929 215.557 47.3453C216.422 46.6978 217.484 46.3667 218.564 46.4079C219.031 46.4062 219.497 46.4568 219.952 46.5586V50.3375C219.363 50.1579 218.748 50.0754 218.132 50.0933C217.543 50.0695 216.957 50.173 216.412 50.3967C215.867 50.6204 215.378 50.9589 214.977 51.3891C214.575 51.8193 214.272 52.3309 214.088 52.8889C213.904 53.4469 213.844 54.038 213.91 54.6216V66.2958H209.859L209.859 46.6138Z" fill="black"/>
<path d="M238.631 60.515C238.086 64.0879 234.597 66.5399 230.133 66.5399C224.391 66.5399 220.827 62.7037 220.827 56.5493C220.827 50.3757 224.41 46.3718 229.962 46.3718C235.423 46.3718 238.857 50.1124 238.857 56.0801V57.4643H224.917V57.7084C224.853 58.4328 224.944 59.1625 225.184 59.8491C225.424 60.5357 225.808 61.1635 226.31 61.6908C226.812 62.218 227.421 62.6327 228.096 62.9073C228.772 63.1819 229.498 63.31 230.226 63.2833C231.184 63.3727 232.145 63.1516 232.966 62.6529C233.787 62.1541 234.425 61.4043 234.784 60.5149L238.631 60.515ZM224.936 54.6407H234.804C234.84 53.9894 234.741 53.3377 234.513 52.7263C234.285 52.115 233.932 51.5573 233.478 51.0883C233.023 50.6192 232.476 50.2489 231.871 50.0006C231.266 49.7523 230.616 49.6314 229.962 49.6454C229.303 49.6415 228.649 49.7679 228.038 50.0173C227.428 50.2668 226.873 50.6343 226.406 51.0987C225.938 51.5631 225.568 52.1152 225.316 52.7232C225.063 53.3311 224.934 53.9828 224.936 54.6407V54.6407Z" fill="black"/>
<path d="M82.6357 18.9804C83.4851 18.9196 84.3374 19.0476 85.1312 19.355C85.9249 19.6625 86.6404 20.1418 87.2259 20.7584C87.8114 21.375 88.2524 22.1134 88.5171 22.9205C88.7817 23.7277 88.8635 24.5833 88.7564 25.4257C88.7564 29.5697 86.5104 31.9518 82.6357 31.9518H77.9372V18.9804H82.6357ZM79.9575 30.1174H82.41C83.017 30.1535 83.6243 30.0543 84.188 29.8269C84.7516 29.5995 85.2573 29.2496 85.6682 28.8027C86.0791 28.3558 86.3849 27.8232 86.5634 27.2436C86.7418 26.664 86.7884 26.052 86.6998 25.4521C86.782 24.8547 86.7307 24.2465 86.5495 23.6711C86.3683 23.0958 86.0617 22.5675 85.6517 22.1242C85.2417 21.6808 84.7385 21.3334 84.1781 21.1068C83.6176 20.8802 83.0139 20.7801 82.41 20.8135H79.9575V30.1174Z" fill="black"/>
<path d="M91.0385 27.0529C90.9768 26.4096 91.0506 25.7605 91.2552 25.1473C91.4597 24.5341 91.7906 23.9703 92.2264 23.4921C92.6623 23.0139 93.1936 22.6318 93.7863 22.3703C94.3789 22.1089 95.0198 21.9738 95.6678 21.9738C96.3159 21.9738 96.9568 22.1089 97.5494 22.3703C98.1421 22.6318 98.6734 23.0139 99.1093 23.4921C99.5451 23.9703 99.876 24.5341 100.081 25.1473C100.285 25.7605 100.359 26.4096 100.297 27.0529C100.36 27.6968 100.287 28.3468 100.083 28.961C99.8791 29.5752 99.5485 30.14 99.1125 30.6192C98.6765 31.0983 98.1448 31.4812 97.5516 31.7432C96.9583 32.0053 96.3167 32.1406 95.6678 32.1406C95.019 32.1406 94.3774 32.0053 93.7841 31.7432C93.1909 31.4812 92.6592 31.0983 92.2232 30.6192C91.7872 30.14 91.4566 29.5752 91.2526 28.961C91.0485 28.3468 90.9756 27.6968 91.0385 27.0529ZM98.3045 27.0529C98.3045 24.931 97.3486 23.6901 95.671 23.6901C93.9871 23.6901 93.0398 24.931 93.0398 27.0529C93.0398 29.1918 93.9871 30.4231 95.671 30.4231C97.3487 30.4231 98.3045 29.1833 98.3045 27.0529H98.3045Z" fill="black"/>
<path d="M112.604 31.9516H110.595L108.566 24.742H108.413L106.392 31.9516H104.402L101.696 22.1626H103.661L105.419 29.6322H105.564L107.582 22.1626H109.441L111.459 29.6322H111.612L113.362 22.1626H115.3L112.604 31.9516Z" fill="black"/>
<path d="M117.576 22.1626H119.44V23.7177H119.585C119.831 23.1592 120.245 22.691 120.77 22.3784C121.295 22.0657 121.905 21.9243 122.515 21.9737C122.992 21.9379 123.472 22.0097 123.918 22.1838C124.364 22.3579 124.765 22.6299 125.091 22.9796C125.418 23.3292 125.661 23.7476 125.803 24.2037C125.945 24.6599 125.983 25.1421 125.912 25.6146V31.9515H123.975V26.0997C123.975 24.5266 123.29 23.7443 121.857 23.7443C121.533 23.7292 121.209 23.7842 120.908 23.9056C120.607 24.027 120.336 24.2118 120.113 24.4474C119.891 24.683 119.722 24.9639 119.618 25.2707C119.514 25.5775 119.479 25.903 119.513 26.2249V31.9516H117.576L117.576 22.1626Z" fill="black"/>
<path d="M128.999 18.3413H130.937V31.9516H128.999V18.3413Z" fill="black"/>
<path d="M133.63 27.0529C133.568 26.4095 133.642 25.7604 133.846 25.1472C134.051 24.534 134.382 23.9702 134.818 23.492C135.254 23.0137 135.785 22.6316 136.378 22.3702C136.971 22.1087 137.611 21.9736 138.26 21.9736C138.908 21.9736 139.549 22.1087 140.141 22.3702C140.734 22.6316 141.265 23.0137 141.701 23.492C142.137 23.9702 142.468 24.534 142.673 25.1472C142.877 25.7604 142.951 26.4095 142.889 27.0529C142.952 27.6969 142.879 28.3468 142.675 28.961C142.471 29.5752 142.14 30.14 141.704 30.6192C141.268 31.0983 140.737 31.4812 140.143 31.7432C139.55 32.0052 138.908 32.1406 138.26 32.1406C137.611 32.1406 136.969 32.0052 136.376 31.7432C135.783 31.4812 135.251 31.0983 134.815 30.6192C134.379 30.14 134.048 29.5752 133.844 28.961C133.64 28.3468 133.567 27.6969 133.63 27.0529ZM140.896 27.0529C140.896 24.931 139.94 23.6901 138.262 23.6901C136.578 23.6901 135.631 24.931 135.631 27.0529C135.631 29.1918 136.578 30.4231 138.262 30.4231C139.94 30.4231 140.896 29.1833 140.896 27.0529H140.896Z" fill="black"/>
<path d="M144.929 29.1833C144.929 27.4212 146.245 26.4054 148.58 26.261L151.239 26.1082V25.2632C151.239 24.2293 150.554 23.6455 149.229 23.6455C148.148 23.6455 147.399 24.0415 147.184 24.7336H145.308C145.506 23.0522 147.092 21.9737 149.319 21.9737C151.78 21.9737 153.168 23.1954 153.168 25.2632V31.9516H151.303V30.5759H151.15C150.839 31.0694 150.402 31.4717 149.884 31.7417C149.366 32.0117 148.785 32.1398 148.201 32.1129C147.789 32.1556 147.373 32.1118 146.979 31.9842C146.584 31.8566 146.222 31.6481 145.913 31.372C145.605 31.096 145.358 30.7586 145.189 30.3817C145.019 30.0047 144.931 29.5964 144.929 29.1833ZM151.239 28.3468V27.5284L148.842 27.6813C147.49 27.7715 146.877 28.2301 146.877 29.093C146.877 29.9741 147.643 30.4868 148.697 30.4868C149.006 30.5179 149.318 30.4868 149.614 30.3953C149.911 30.3038 150.186 30.1538 150.423 29.9541C150.66 29.7545 150.855 29.5093 150.995 29.2332C151.135 28.957 151.218 28.6556 151.239 28.3468Z" fill="black"/>
<path d="M155.714 27.0529C155.714 23.9597 157.309 22.0002 159.789 22.0002C160.402 21.972 161.011 22.1186 161.544 22.4227C162.077 22.7268 162.513 23.176 162.799 23.7176H162.944V18.3413H164.881V31.9516H163.025V30.405H162.872C162.563 30.943 162.112 31.3866 161.569 31.6876C161.026 31.9887 160.41 32.1357 159.789 32.1129C157.292 32.113 155.714 30.1535 155.714 27.0529ZM157.715 27.0529C157.715 29.1291 158.697 30.3785 160.338 30.3785C161.971 30.3785 162.98 29.1111 162.98 27.0614C162.98 25.0212 161.96 23.7358 160.338 23.7358C158.707 23.7358 157.715 24.9936 157.715 27.0529H157.715Z" fill="black"/>
<path d="M172.897 27.0529C172.835 26.4096 172.909 25.7605 173.113 25.1473C173.318 24.5341 173.649 23.9703 174.085 23.4921C174.521 23.0139 175.052 22.6318 175.644 22.3703C176.237 22.1089 176.878 21.9738 177.526 21.9738C178.174 21.9738 178.815 22.1089 179.408 22.3703C180 22.6318 180.532 23.0139 180.967 23.4921C181.403 23.9703 181.734 24.5341 181.939 25.1473C182.143 25.7605 182.217 26.4096 182.155 27.0529C182.218 27.6968 182.145 28.3468 181.941 28.961C181.737 29.5752 181.407 30.14 180.971 30.6192C180.535 31.0983 180.003 31.4812 179.41 31.7432C178.817 32.0053 178.175 32.1406 177.526 32.1406C176.877 32.1406 176.236 32.0053 175.642 31.7432C175.049 31.4812 174.517 31.0983 174.081 30.6192C173.645 30.14 173.315 29.5752 173.111 28.961C172.907 28.3468 172.834 27.6968 172.897 27.0529ZM180.163 27.0529C180.163 24.931 179.207 23.6901 177.529 23.6901C175.845 23.6901 174.898 24.931 174.898 27.0529C174.898 29.1918 175.845 30.4231 177.529 30.4231C179.207 30.4231 180.163 29.1833 180.163 27.0529Z" fill="black"/>
<path d="M184.755 22.1626H186.62V23.7177H186.765C187.01 23.1592 187.424 22.691 187.949 22.3784C188.475 22.0657 189.084 21.9243 189.694 21.9737C190.172 21.9379 190.651 22.0097 191.097 22.1838C191.543 22.3579 191.944 22.6299 192.271 22.9796C192.597 23.3292 192.84 23.7476 192.982 24.2037C193.124 24.6599 193.162 25.1421 193.092 25.6146V31.9515H191.154V26.0997C191.154 24.5266 190.469 23.7443 189.036 23.7443C188.712 23.7292 188.388 23.7842 188.087 23.9056C187.786 24.027 187.515 24.2118 187.292 24.4474C187.07 24.683 186.901 24.9639 186.797 25.2707C186.694 25.5775 186.658 25.903 186.692 26.2249V31.9516H184.755V22.1626Z" fill="black"/>
<path d="M204.039 19.7255V22.2072H206.165V23.8345H204.039V28.868C204.039 29.8934 204.462 30.3424 205.427 30.3424C205.674 30.3416 205.92 30.3268 206.165 30.2978V31.907C205.817 31.9691 205.465 32.0021 205.112 32.0058C202.957 32.0058 202.099 31.25 202.099 29.3627V23.8344H200.541V22.2071H202.099V19.7255H204.039Z" fill="black"/>
<path d="M208.812 18.3413H210.732V23.7357H210.885C211.143 23.172 211.568 22.7011 212.104 22.3873C212.64 22.0735 213.259 21.9321 213.878 21.9822C214.354 21.9564 214.829 22.0355 215.27 22.2138C215.71 22.3922 216.107 22.6654 216.429 23.014C216.752 23.3625 216.994 23.7779 217.138 24.2303C217.281 24.6828 217.322 25.1612 217.259 25.6315V31.9516H215.32V26.1081C215.32 24.5446 214.59 23.7527 213.221 23.7527C212.888 23.7255 212.553 23.7711 212.239 23.8864C211.926 24.0018 211.642 24.184 211.406 24.4204C211.171 24.6568 210.99 24.9416 210.876 25.255C210.763 25.5683 210.719 25.9026 210.749 26.2344V31.9516H208.812L208.812 18.3413Z" fill="black"/>
<path d="M228.555 29.3085C228.292 30.2032 227.722 30.977 226.944 31.4948C226.166 32.0125 225.231 32.2411 224.302 32.1405C223.655 32.1576 223.012 32.034 222.418 31.7785C221.824 31.523 221.293 31.1417 220.861 30.661C220.43 30.1802 220.109 29.6116 219.92 28.9946C219.731 28.3776 219.679 27.727 219.767 27.0879C219.681 26.4469 219.734 25.7948 219.922 25.176C220.111 24.5571 220.431 23.9859 220.86 23.5009C221.289 23.016 221.818 22.6287 222.41 22.3652C223.002 22.1017 223.644 21.9682 224.293 21.9737C227.024 21.9737 228.672 23.8346 228.672 26.9085V27.5826H221.74V27.6908C221.71 28.0501 221.755 28.4117 221.873 28.7524C221.991 29.0932 222.179 29.4056 222.426 29.6696C222.672 29.9337 222.971 30.1435 223.303 30.2857C223.635 30.4278 223.993 30.4992 224.355 30.4952C224.818 30.5507 225.288 30.4675 225.704 30.2561C226.119 30.0448 226.463 29.7149 226.69 29.3085L228.555 29.3085ZM221.74 26.1538H226.699C226.723 25.8253 226.678 25.4953 226.567 25.185C226.456 24.8747 226.281 24.5911 226.054 24.3523C225.826 24.1135 225.551 23.9247 225.246 23.7983C224.941 23.6718 224.613 23.6104 224.282 23.6179C223.947 23.6137 223.615 23.6765 223.304 23.8024C222.994 23.9284 222.712 24.115 222.475 24.3514C222.238 24.5877 222.051 24.8689 221.925 25.1785C221.799 25.4881 221.736 25.8197 221.74 26.1538H221.74Z" fill="black"/>
</g>
<defs>
<clipPath id="clip0_8_15674">
<rect width="260.87" height="86.9565" fill="white" transform="translate(0.17395)"/>
</clipPath>
</defs>
</svg>
