<svg width="294" height="87" viewBox="0 0 294 87" fill="none" xmlns="http://www.w3.org/2000/svg">
<g clip-path="url(#clip0_8_15670)">
<path d="M282.609 0H10.8696C4.86647 0 0 4.86647 0 10.8696V76.087C0 82.09 4.86647 86.9565 10.8696 86.9565H282.609C288.612 86.9565 293.478 82.09 293.478 76.087V10.8696C293.478 4.86647 288.612 0 282.609 0Z" fill="white"/>
<path d="M282.609 1.73913C285.03 1.73913 287.353 2.70108 289.065 4.41337C290.777 6.12566 291.739 8.44802 291.739 10.8696V76.087C291.739 78.5085 290.777 80.8309 289.065 82.5431C287.353 84.2554 285.03 85.2174 282.609 85.2174H10.8696C8.44802 85.2174 6.12566 84.2554 4.41337 82.5431C2.70108 80.8309 1.73913 78.5085 1.73913 76.087V10.8696C1.73913 8.44802 2.70108 6.12566 4.41337 4.41337C6.12566 2.70108 8.44802 1.73913 10.8696 1.73913H282.609ZM282.609 0H10.8696C7.98678 0 5.22206 1.14518 3.18362 3.18362C1.14518 5.22206 0 7.98678 0 10.8696V76.087C0 78.9697 1.14518 81.7345 3.18362 83.7729C5.22206 85.8113 7.98678 86.9565 10.8696 86.9565H282.609C285.491 86.9565 288.256 85.8113 290.295 83.7729C292.333 81.7345 293.478 78.9697 293.478 76.087V10.8696C293.478 7.98678 292.333 5.22206 290.295 3.18362C288.256 1.14518 285.491 0 282.609 0Z" fill="black"/>
<path d="M103.087 22.2609C103.123 23.0581 102.997 23.8543 102.716 24.6015C102.436 25.3488 102.008 26.0315 101.456 26.6087C100.839 27.2463 100.094 27.7463 99.2695 28.076C98.4453 28.4056 97.5608 28.5575 96.6739 28.5217C95.7818 28.5416 94.8952 28.3782 94.0688 28.0417C93.2424 27.7052 92.4939 27.2027 91.8695 26.5652C90.6028 25.2695 89.8936 23.5294 89.8936 21.7174C89.8936 19.9054 90.6028 18.1653 91.8695 16.8696C92.838 15.9232 94.0646 15.2842 95.3951 15.0328C96.7256 14.7814 98.1008 14.9288 99.3478 15.4565C100.132 15.7788 100.831 16.2771 101.391 16.9131L100.239 18.0652C99.8074 17.5452 99.2604 17.1329 98.6415 16.8612C98.0226 16.5895 97.3489 16.4658 96.6739 16.5C95.8218 16.5059 94.984 16.7204 94.234 17.1248C93.4839 17.5292 92.8443 18.1112 92.3711 18.8198C91.8978 19.5285 91.6054 20.3423 91.5193 21.1901C91.4332 22.0379 91.556 22.8938 91.8771 23.6832C92.1982 24.4725 92.7077 25.1712 93.3612 25.7181C94.0146 26.2651 94.7921 26.6437 95.6257 26.8208C96.4592 26.9978 97.3234 26.9681 98.1428 26.7341C98.9622 26.5 99.7118 26.0689 100.326 25.4783C100.99 24.7502 101.375 23.8107 101.413 22.8261H96.6739V21.2609H103C103.049 21.5921 103.078 21.9261 103.087 22.2609Z" fill="black" stroke="black" stroke-width="0.411304" stroke-miterlimit="10"/>
<path d="M113.043 16.8261H107.174V20.9565H112.522V22.5218H107.174V26.6522H113.043V28.2609H105.478V15.2174H113.043V16.8261Z" fill="black" stroke="black" stroke-width="0.411304" stroke-miterlimit="10"/>
<path d="M120.174 28.2609H118.5V16.8261H114.848V15.2174H123.913V16.8261H120.174V28.2609Z" fill="black" stroke="black" stroke-width="0.411304" stroke-miterlimit="10"/>
<path d="M130.304 28.2609V15.2174H131.978V28.2609H130.304Z" fill="black" stroke="black" stroke-width="0.411304" stroke-miterlimit="10"/>
<path d="M139.413 28.2609H137.739V16.8261H134.087V15.2174H143.043V16.8261H139.413V28.2609Z" fill="black" stroke="black" stroke-width="0.411304" stroke-miterlimit="10"/>
<path d="M160.022 26.5652C159.394 27.1936 158.648 27.6921 157.828 28.0322C157.007 28.3723 156.127 28.5474 155.239 28.5474C154.351 28.5474 153.471 28.3723 152.651 28.0322C151.83 27.6921 151.084 27.1936 150.457 26.5652C149.228 25.2588 148.543 23.5327 148.543 21.7391C148.543 19.9455 149.228 18.2195 150.457 16.913C151.071 16.267 151.814 15.757 152.638 15.4163C153.462 15.0755 154.348 14.9115 155.239 14.9348C156.129 14.9207 157.013 15.089 157.835 15.4292C158.658 15.7694 159.402 16.2744 160.022 16.913C160.647 17.5489 161.138 18.3035 161.467 19.1325C161.795 19.9614 161.954 20.8477 161.935 21.7391C161.963 22.6317 161.808 23.5206 161.479 24.3507C161.15 25.1809 160.654 25.9346 160.022 26.5652ZM151.696 25.4783C152.159 25.9476 152.71 26.3202 153.319 26.5745C153.927 26.8289 154.58 26.9598 155.239 26.9598C155.898 26.9598 156.551 26.8289 157.16 26.5745C157.768 26.3202 158.32 25.9476 158.783 25.4783C159.721 24.459 160.241 23.1243 160.241 21.7391C160.241 20.3539 159.721 19.0193 158.783 18C158.32 17.5307 157.768 17.1581 157.16 16.9037C156.551 16.6494 155.898 16.5184 155.239 16.5184C154.58 16.5184 153.927 16.6494 153.319 16.9037C152.71 17.1581 152.159 17.5307 151.696 18C150.758 19.0193 150.237 20.3539 150.237 21.7391C150.237 23.1243 150.758 24.459 151.696 25.4783Z" fill="black" stroke="black" stroke-width="0.411304" stroke-miterlimit="10"/>
<path d="M164.304 28.2609V15.2174H166.326L172.674 25.3696V22.8478V15.2174H174.348V28.2609H172.609L165.978 17.6305V20.1305V28.2609H164.304Z" fill="black" stroke="black" stroke-width="0.411304" stroke-miterlimit="10"/>
<path d="M148.13 47.2826C146.299 47.2869 144.51 47.8343 142.989 48.8554C141.469 49.8766 140.285 51.3257 139.588 53.0196C138.891 54.7134 138.712 56.5759 139.074 58.3715C139.435 60.1671 140.321 61.8151 141.619 63.1072C142.917 64.3993 144.57 65.2775 146.367 65.6306C148.164 65.9837 150.026 65.7959 151.716 65.091C153.407 64.3861 154.85 63.1958 155.864 61.6705C156.878 60.1451 157.417 58.3534 157.413 56.5217C157.431 55.2999 157.202 54.0869 156.742 52.9551C156.281 51.8233 155.597 50.7958 154.731 49.9337C153.865 49.0717 152.834 48.3927 151.7 47.9372C150.566 47.4818 149.352 47.2592 148.13 47.2826ZM148.13 62.1304C147.008 62.209 145.887 61.9479 144.915 61.3813C143.943 60.8146 143.163 59.9686 142.678 58.9531C142.193 57.9377 142.025 56.7997 142.195 55.6873C142.365 54.5748 142.866 53.5393 143.633 52.7153C144.399 51.8913 145.396 51.317 146.493 51.0669C147.59 50.8169 148.737 50.9027 149.785 51.3132C150.833 51.7238 151.733 52.44 152.368 53.3689C153.004 54.2978 153.345 55.3964 153.348 56.5217C153.383 57.2348 153.275 57.9477 153.03 58.6183C152.785 59.2889 152.408 59.9037 151.922 60.4265C151.436 60.9492 150.85 61.3693 150.199 61.6619C149.547 61.9546 148.844 62.1139 148.13 62.1304ZM127.87 47.2826C126.038 47.2869 124.249 47.8343 122.728 48.8554C121.208 49.8766 120.024 51.3257 119.327 53.0196C118.63 54.7134 118.451 56.5759 118.813 58.3715C119.174 60.1671 120.06 61.8151 121.358 63.1072C122.656 64.3993 124.309 65.2775 126.106 65.6306C127.903 65.9837 129.765 65.7959 131.455 65.091C133.146 64.3861 134.59 63.1958 135.604 61.6705C136.618 60.1451 137.156 58.3534 137.152 56.5217C137.17 55.2999 136.942 54.0869 136.481 52.9551C136.02 51.8233 135.336 50.7958 134.47 49.9337C133.604 49.0717 132.573 48.3927 131.439 47.9372C130.305 47.4818 129.091 47.2592 127.87 47.2826ZM127.87 62.1304C126.747 62.209 125.627 61.9479 124.654 61.3813C123.682 60.8146 122.903 59.9686 122.417 58.9531C121.932 57.9377 121.764 56.7997 121.934 55.6873C122.104 54.5748 122.605 53.5393 123.372 52.7153C124.138 51.8913 125.135 51.317 126.232 51.0669C127.329 50.8169 128.476 50.9027 129.524 51.3132C130.572 51.7238 131.472 52.44 132.108 53.3689C132.743 54.2978 133.084 55.3964 133.087 56.5217C133.122 57.2348 133.014 57.9477 132.769 58.6183C132.524 59.2889 132.147 59.9037 131.661 60.4265C131.175 60.9492 130.589 61.3693 129.938 61.6619C129.287 61.9546 128.583 62.1139 127.87 62.1304ZM103.783 50.1304V54.0435H113.174C113.027 55.8865 112.261 57.6256 111 58.9783C110.058 59.9381 108.925 60.6894 107.674 61.1837C106.423 61.6781 105.083 61.9043 103.739 61.8478C100.972 61.8478 98.3175 60.7485 96.3606 58.7916C94.4037 56.8347 93.3044 54.1805 93.3044 51.4131C93.3044 48.6456 94.4037 45.9914 96.3606 44.0345C98.3175 42.0776 100.972 40.9783 103.739 40.9783C106.392 40.9388 108.954 41.9464 110.87 43.7826L113.63 41.0217C112.335 39.7402 110.796 38.7302 109.105 38.0508C107.414 37.3714 105.605 37.0364 103.783 37.0652C101.85 36.99 99.9221 37.3057 98.1144 37.9934C96.3067 38.6811 94.6565 39.7267 93.2625 41.0674C91.8686 42.4082 90.7597 44.0165 90.0022 45.7961C89.2447 47.5757 88.8542 49.4898 88.8542 51.4239C88.8542 53.358 89.2447 55.2722 90.0022 57.0517C90.7597 58.8313 91.8686 60.4397 93.2625 61.7804C94.6565 63.1212 96.3067 64.1667 98.1144 64.8544C99.9221 65.5421 101.85 65.8578 103.783 65.7826C105.642 65.8569 107.497 65.537 109.224 64.8438C110.951 64.1507 112.512 63.1 113.804 61.7609C116.087 59.2531 117.304 55.9548 117.196 52.5652C117.203 51.7494 117.138 50.9345 117 50.1304H103.783ZM202.283 53.1739C201.716 51.506 200.655 50.0495 199.242 48.9975C197.829 47.9455 196.13 47.3474 194.37 47.2826C193.18 47.2803 192.003 47.5219 190.911 47.9925C189.819 48.4631 188.835 49.1526 188.02 50.0186C187.205 50.8845 186.577 51.9084 186.173 53.0269C185.769 54.1455 185.6 55.3349 185.674 56.5217C185.655 58.5062 186.279 60.4434 187.452 62.0441C188.626 63.6447 190.285 64.8228 192.183 65.4025C194.081 65.9822 196.116 65.9323 197.983 65.2602C199.85 64.5882 201.45 63.3301 202.543 61.6739L199.391 59.5C198.921 60.2832 198.255 60.93 197.458 61.3761C196.661 61.8223 195.761 62.0524 194.848 62.0435C193.906 62.0824 192.974 61.8354 192.174 61.3349C191.375 60.8344 190.746 60.1038 190.37 59.2391L202.739 54.1304L202.283 53.1739ZM189.674 56.2609C189.63 55.5856 189.721 54.9083 189.942 54.2687C190.163 53.6291 190.509 53.04 190.961 52.5359C191.412 52.0318 191.96 51.6229 192.571 51.333C193.183 51.0432 193.846 50.8782 194.522 50.8478C195.222 50.8051 195.92 50.97 196.527 51.3219C197.134 51.6738 197.624 52.1971 197.935 52.8261L189.674 56.2609ZM179.63 65.2174H183.696V38.0435H179.63V65.2174ZM172.978 49.3478H172.826C172.219 48.6562 171.469 48.1039 170.629 47.7287C169.788 47.3535 168.877 47.1643 167.957 47.1739C165.581 47.2891 163.341 48.314 161.7 50.0361C160.059 51.7581 159.144 54.0454 159.144 56.4239C159.144 58.8024 160.059 61.0897 161.7 62.8118C163.341 64.5339 165.581 65.5587 167.957 65.6739C168.878 65.6924 169.793 65.5071 170.634 65.1313C171.476 64.7556 172.225 64.1985 172.826 63.5H172.978V64.8261C172.978 68.3696 171.087 70.2609 168.043 70.2609C167.027 70.2385 166.04 69.9146 165.207 69.3301C164.375 68.7456 163.736 67.927 163.37 66.9783L159.848 68.4348C160.499 70.0701 161.631 71.4693 163.094 72.4475C164.558 73.4257 166.283 73.9367 168.043 73.9131C172.804 73.9131 176.739 71.1087 176.739 64.2826V47.8261H172.978V49.3478ZM168.304 62.1304C166.88 62.0416 165.543 61.4132 164.566 60.3732C163.589 59.3332 163.045 57.9597 163.045 56.5326C163.045 55.1055 163.589 53.7321 164.566 52.692C165.543 51.652 166.88 51.0236 168.304 50.9348C169.001 50.9648 169.684 51.1346 170.313 51.434C170.942 51.7334 171.505 52.1563 171.967 52.6776C172.429 53.1988 172.782 53.8078 173.005 54.4682C173.227 55.1286 173.314 55.827 173.261 56.5217C173.32 57.2189 173.237 57.9208 173.018 58.5851C172.798 59.2494 172.446 59.8622 171.983 60.3865C171.519 60.9108 170.954 61.3357 170.322 61.6354C169.69 61.9352 169.004 62.1036 168.304 62.1304ZM221.326 38.0435H211.587V65.2174H215.652V54.913H221.326C222.485 54.9963 223.648 54.8399 224.743 54.4538C225.839 54.0676 226.843 53.4599 227.693 52.6685C228.544 51.8771 229.222 50.919 229.686 49.854C230.149 48.789 230.389 47.6398 230.389 46.4783C230.389 45.3167 230.149 44.1676 229.686 43.1025C229.222 42.0375 228.544 41.0795 227.693 40.2881C226.843 39.4967 225.839 38.889 224.743 38.5028C223.648 38.1166 222.485 37.9602 221.326 38.0435ZM221.326 51.087H215.652V41.8261H221.413C222.024 41.8261 222.629 41.9464 223.193 42.1802C223.758 42.414 224.271 42.7567 224.703 43.1887C225.135 43.6207 225.477 44.1335 225.711 44.698C225.945 45.2624 226.065 45.8673 226.065 46.4783C226.065 47.0892 225.945 47.6942 225.711 48.2586C225.477 48.823 225.135 49.3359 224.703 49.7678C224.271 50.1998 223.758 50.5425 223.193 50.7763C222.629 51.0101 222.024 51.1304 221.413 51.1304L221.326 51.087ZM246.413 47.1957C244.933 47.1044 243.458 47.449 242.171 48.187C240.885 48.925 239.843 50.0239 239.174 51.3478L242.761 52.8478C243.123 52.1944 243.667 51.6598 244.327 51.3088C244.987 50.9577 245.734 50.8052 246.478 50.8696C246.994 50.8093 247.517 50.8524 248.016 50.9964C248.516 51.1403 248.981 51.3823 249.386 51.7081C249.791 52.0339 250.126 52.437 250.374 52.894C250.621 53.3509 250.775 53.8525 250.826 54.3696V54.6304C249.519 53.9433 248.064 53.5851 246.587 53.587C242.717 53.587 238.761 55.7609 238.761 59.7174C238.799 60.5584 239.006 61.3831 239.369 62.1425C239.732 62.9019 240.245 63.5806 240.875 64.1383C241.506 64.6959 242.242 65.1212 243.04 65.3887C243.839 65.6562 244.682 65.7606 245.522 65.6957C246.542 65.7521 247.559 65.5362 248.468 65.0701C249.377 64.6041 250.146 63.9046 250.696 63.0435H250.826V65.2174H254.739V54.7609C254.739 50 251.13 47.2391 246.5 47.2391L246.413 47.1957ZM245.913 62.087C244.587 62.087 242.739 61.413 242.739 59.7826C242.739 57.6087 245.043 56.8696 247.087 56.8696C248.378 56.8377 249.655 57.153 250.783 57.7826C250.646 58.9632 250.086 60.0543 249.207 60.8537C248.328 61.6532 247.188 62.1068 246 62.1304L245.913 62.087ZM269 47.8261L264.348 59.6087H264.217L259.391 47.8261H255.043L262.283 64.3044L258.152 73.4565H262.391L273.522 47.8261H269ZM232.478 65.2174H236.522V38.0435H232.478V65.2174Z" fill="black"/>
<path d="M22.6957 16.3913C21.9793 17.2383 21.6138 18.3271 21.6739 19.4348V67.5217C21.6 68.6313 21.9672 69.7251 22.6957 70.5652L22.8478 70.7391L49.7826 43.8044V43.1522L22.8478 16.2391L22.6957 16.3913Z" fill="url(#paint0_linear_8_15670)"/>
<path d="M58.6956 52.7826L49.7826 43.8044V43.1522L58.6956 34.1739L58.8913 34.3044L69.5652 40.3478C72.6087 42.0652 72.6087 44.8913 69.5652 46.6304L58.9348 52.6739L58.6956 52.7826Z" fill="url(#paint1_linear_8_15670)"/>
<path d="M58.9565 52.6522L49.7826 43.4783L22.6957 70.5652C23.31 71.112 24.0963 71.4266 24.9182 71.4544C25.7401 71.4822 26.5459 71.2214 27.1957 70.7174L58.9565 52.6522Z" fill="url(#paint2_linear_8_15670)"/>
<path d="M58.9565 34.3044L27.1957 16.2609C26.5501 15.7498 25.745 15.4827 24.9219 15.5066C24.0989 15.5305 23.3106 15.8437 22.6957 16.3913L49.7826 43.4783L58.9565 34.3044Z" fill="url(#paint3_linear_8_15670)"/>
<path opacity="0.2" d="M58.6957 52.4565L27.1957 70.3913C26.5695 70.8639 25.8063 71.1196 25.0218 71.1196C24.2372 71.1196 23.4741 70.8639 22.8479 70.3913L22.6957 70.5435L22.8479 70.7174C23.4741 71.19 24.2372 71.4457 25.0218 71.4457C25.8063 71.4457 26.5695 71.19 27.1957 70.7174L58.9565 52.6522L58.6957 52.4565Z" fill="black"/>
<path opacity="0.12" d="M22.6956 70.2609C21.9974 69.3986 21.6552 68.302 21.7391 67.1957V67.5218C21.6652 68.6313 22.0324 69.7251 22.7609 70.5652L22.913 70.4131L22.6956 70.2609Z" fill="black"/>
<path opacity="0.12" d="M69.5652 46.3044L58.6956 52.4565L58.8913 52.6522L69.5652 46.6087C70.1953 46.3423 70.7418 45.9109 71.1474 45.36C71.5529 44.8091 71.8024 44.159 71.8696 43.4783C71.7336 44.0969 71.4543 44.6749 71.054 45.1658C70.6538 45.6567 70.1438 46.0467 69.5652 46.3044Z" fill="black"/>
<path opacity="0.25" d="M27.1957 16.5652L69.5653 40.6522C70.1439 40.9098 70.6538 41.2998 71.0541 41.7907C71.4544 42.2816 71.7337 42.8596 71.8696 43.4783C71.8024 42.7975 71.553 42.1474 71.1474 41.5965C70.7419 41.0456 70.1953 40.6142 69.5653 40.3478L27.1957 16.2609C24.174 14.5217 21.674 15.9565 21.674 19.4348V19.7609C21.7392 16.2826 24.174 14.8478 27.1957 16.5652Z" fill="white"/>
</g>
<defs>
<linearGradient id="paint0_linear_8_15670" x1="47.3913" y1="18.9348" x2="10.9131" y2="55.4131" gradientUnits="userSpaceOnUse">
<stop stop-color="#00A0FF"/>
<stop offset="0.01" stop-color="#00A1FF"/>
<stop offset="0.26" stop-color="#00BEFF"/>
<stop offset="0.51" stop-color="#00D2FF"/>
<stop offset="0.76" stop-color="#00DFFF"/>
<stop offset="1" stop-color="#00E3FF"/>
</linearGradient>
<linearGradient id="paint1_linear_8_15670" x1="73.5435" y1="43.4783" x2="20.9565" y2="43.4783" gradientUnits="userSpaceOnUse">
<stop stop-color="#FFE000"/>
<stop offset="0.41" stop-color="#FFBD00"/>
<stop offset="0.78" stop-color="#FFA500"/>
<stop offset="1" stop-color="#FF9C00"/>
</linearGradient>
<linearGradient id="paint2_linear_8_15670" x1="53.9783" y1="48.4783" x2="4.50002" y2="97.9348" gradientUnits="userSpaceOnUse">
<stop stop-color="#FF3A44"/>
<stop offset="1" stop-color="#C31162"/>
</linearGradient>
<linearGradient id="paint3_linear_8_15670" x1="15.8696" y1="0.391316" x2="37.9565" y2="22.4783" gradientUnits="userSpaceOnUse">
<stop stop-color="#32A071"/>
<stop offset="0.07" stop-color="#2DA771"/>
<stop offset="0.48" stop-color="#15CF74"/>
<stop offset="0.8" stop-color="#06E775"/>
<stop offset="1" stop-color="#00F076"/>
</linearGradient>
<clipPath id="clip0_8_15670">
<rect width="293.478" height="86.9565" fill="white"/>
</clipPath>
</defs>
</svg>
