<svg width="169" height="43" viewBox="0 0 169 43" fill="none" xmlns="http://www.w3.org/2000/svg">
<path d="M0 15C0 13.3431 1.34315 12 3 12C4.65685 12 6 13.3431 6 15V28C6 29.6569 4.65685 31 3 31C1.34315 31 0 29.6569 0 28V15Z" fill="url(#paint0_linear_104_80)"/>
<path d="M7 11C7 9.34315 8.34315 8 10 8C11.6569 8 13 9.34315 13 11V32C13 33.6569 11.6569 35 10 35C8.34315 35 7 33.6569 7 32V11Z" fill="url(#paint1_linear_104_80)"/>
<path d="M14 7C14 5.34315 15.3431 4 17 4C18.6569 4 20 5.34315 20 7V36C20 37.6569 18.6569 39 17 39C15.3431 39 14 37.6569 14 36V7Z" fill="url(#paint2_linear_104_80)"/>
<path d="M21 3C21 1.34314 22.3431 0 24 0C25.6569 0 27 1.34315 27 3V40C27 41.6569 25.6569 43 24 43C22.3431 43 21 41.6569 21 40V3Z" fill="url(#paint3_linear_104_80)"/>
<path d="M28 17C28 15.3431 29.3431 14 31 14C32.6569 14 34 15.3431 34 17V26C34 27.6569 32.6569 29 31 29C29.3431 29 28 27.6569 28 26V17Z" fill="url(#paint4_linear_104_80)"/>
<path d="M35 21C35 19.3431 36.3431 18 38 18C39.6569 18 41 19.3431 41 21V22C41 23.6569 39.6569 25 38 25C36.3431 25 35 23.6569 35 22V21Z" fill="url(#paint5_linear_104_80)"/>
<path d="M57 11.5691H64.1146L69.0085 23.544H69.2553L74.1492 11.5691H81.2638V32.711H75.6708V20.4883H75.5063L70.818 32.5458H67.4458L62.7575 20.4057H62.593V32.711H57V11.5691Z" fill="#D9D9D9"/>
<path d="M95.4534 25.7738V16.8546H101.129V32.711H95.7413V29.6966H95.5768C95.2341 30.7083 94.6343 31.4997 93.7776 32.0709C92.9208 32.6352 91.9029 32.9174 90.724 32.9174C89.6205 32.9174 88.6541 32.6628 87.8247 32.1535C87.0022 31.6442 86.3613 30.9423 85.9021 30.0476C85.4497 29.1529 85.2201 28.1275 85.2133 26.9713V16.8546H90.8885V25.7738C90.8954 26.5583 91.0941 27.1743 91.4848 27.6216C91.8824 28.069 92.4376 28.2926 93.1504 28.2926C93.6233 28.2926 94.0312 28.1929 94.3739 27.9933C94.7234 27.7868 94.9907 27.4978 95.1758 27.1261C95.3677 26.7476 95.4603 26.2968 95.4534 25.7738Z" fill="#D9D9D9"/>
<path d="M119.608 22.0162H114.385C114.358 21.6927 114.245 21.414 114.046 21.18C113.847 20.946 113.59 20.7671 113.275 20.6432C112.966 20.5124 112.624 20.447 112.247 20.447C111.76 20.447 111.342 20.5365 110.992 20.7154C110.643 20.8944 110.472 21.149 110.478 21.4794C110.472 21.7133 110.571 21.9301 110.777 22.1297C110.989 22.3293 111.397 22.4841 112 22.5943L115.208 23.1724C116.825 23.4683 118.028 23.9672 118.816 24.6692C119.612 25.3643 120.013 26.2968 120.019 27.4668C120.013 28.5955 119.677 29.5762 119.012 30.4089C118.354 31.2347 117.452 31.8748 116.308 32.329C115.17 32.7763 113.871 33 112.411 33C109.999 33 108.11 32.5045 106.746 31.5135C105.389 30.5224 104.632 29.2148 104.474 27.5907H110.108C110.184 28.0931 110.43 28.4819 110.848 28.7572C111.273 29.0256 111.808 29.1598 112.452 29.1598C112.973 29.1598 113.402 29.0703 113.738 28.8914C114.08 28.7124 114.255 28.4578 114.262 28.1275C114.255 27.8247 114.104 27.5838 113.809 27.4048C113.522 27.2259 113.069 27.0814 112.452 26.9713L109.656 26.4758C108.045 26.1936 106.839 25.6568 106.037 24.8653C105.235 24.0739 104.837 23.0554 104.844 21.8097C104.837 20.7086 105.125 19.776 105.708 19.0121C106.297 18.2413 107.137 17.6563 108.227 17.2572C109.323 16.8511 110.622 16.6481 112.123 16.6481C114.406 16.6481 116.205 17.123 117.521 18.0727C118.844 19.0224 119.54 20.3369 119.608 22.0162Z" fill="#D9D9D9"/>
<path d="M123.352 32.711V16.8546H129.027V32.711H123.352ZM126.19 15.2029C125.422 15.2029 124.764 14.9482 124.216 14.439C123.667 13.9297 123.393 13.3172 123.393 12.6014C123.393 11.8857 123.667 11.2732 124.216 10.7639C124.764 10.2546 125.422 10 126.19 10C126.964 10 127.622 10.2546 128.164 10.7639C128.712 11.2732 128.986 11.8857 128.986 12.6014C128.986 13.3172 128.712 13.9297 128.164 14.439C127.622 14.9482 126.964 15.2029 126.19 15.2029Z" fill="#D9D9D9"/>
<path d="M140.685 33C138.972 33 137.505 32.6593 136.285 31.978C135.065 31.2898 134.129 30.3332 133.478 29.1082C132.827 27.8763 132.501 26.4482 132.501 24.8241C132.501 23.1999 132.827 21.7753 133.478 20.5503C134.129 19.3184 135.065 18.3618 136.285 17.6804C137.505 16.9922 138.972 16.6481 140.685 16.6481C142.234 16.6481 143.574 16.9303 144.705 17.4946C145.843 18.0521 146.724 18.8435 147.347 19.8689C147.971 20.8875 148.286 22.085 148.293 23.4614H143.029C142.954 22.6287 142.714 21.9955 142.309 21.5619C141.912 21.1215 141.398 20.9013 140.767 20.9013C140.274 20.9013 139.842 21.0458 139.472 21.3348C139.102 21.617 138.814 22.0471 138.608 22.6252C138.403 23.1964 138.3 23.9156 138.3 24.7828C138.3 25.6499 138.403 26.3725 138.608 26.9506C138.814 27.5218 139.102 27.952 139.472 28.241C139.842 28.5232 140.274 28.6643 140.767 28.6643C141.185 28.6643 141.556 28.5679 141.878 28.3752C142.2 28.1756 142.46 27.8866 142.659 27.5081C142.865 27.1227 142.988 26.6547 143.029 26.1041H148.293C148.273 27.5012 147.954 28.7193 147.337 29.7585C146.72 30.7908 145.846 31.5892 144.715 32.1535C143.591 32.7178 142.248 33 140.685 33Z" fill="#D9D9D9"/>
<path d="M169 11.5691V32.711H163.284V16.8546H163.16L158.554 19.6212V14.7487L163.736 11.5691H169Z" fill="#D9D9D9"/>
<defs>
<linearGradient id="paint0_linear_104_80" x1="-5.28616" y1="-6.6154" x2="54.2376" y2="-3.13513" gradientUnits="userSpaceOnUse">
<stop stop-color="#B5179E"/>
<stop offset="1" stop-color="#7209B7"/>
</linearGradient>
<linearGradient id="paint1_linear_104_80" x1="-5.28616" y1="-6.6154" x2="54.2376" y2="-3.13513" gradientUnits="userSpaceOnUse">
<stop stop-color="#B5179E"/>
<stop offset="1" stop-color="#7209B7"/>
</linearGradient>
<linearGradient id="paint2_linear_104_80" x1="-5.28616" y1="-6.6154" x2="54.2376" y2="-3.13513" gradientUnits="userSpaceOnUse">
<stop stop-color="#B5179E"/>
<stop offset="1" stop-color="#7209B7"/>
</linearGradient>
<linearGradient id="paint3_linear_104_80" x1="-5.28616" y1="-6.6154" x2="54.2376" y2="-3.13513" gradientUnits="userSpaceOnUse">
<stop stop-color="#B5179E"/>
<stop offset="1" stop-color="#7209B7"/>
</linearGradient>
<linearGradient id="paint4_linear_104_80" x1="-5.28616" y1="-6.6154" x2="54.2376" y2="-3.13513" gradientUnits="userSpaceOnUse">
<stop stop-color="#B5179E"/>
<stop offset="1" stop-color="#7209B7"/>
</linearGradient>
<linearGradient id="paint5_linear_104_80" x1="-5.28616" y1="-6.6154" x2="54.2376" y2="-3.13513" gradientUnits="userSpaceOnUse">
<stop stop-color="#B5179E"/>
<stop offset="1" stop-color="#7209B7"/>
</linearGradient>
</defs>
</svg>
