<svg width="15" height="19" viewBox="0 0 15 19" fill="none" xmlns="http://www.w3.org/2000/svg">
<path d="M0.999756 1V17.3222" stroke="white" stroke-width="1.5" stroke-linecap="round" stroke-linejoin="round"/>
<path d="M13.9746 15.0119C13.9753 15.2378 13.9149 15.4597 13.8 15.6541C13.6851 15.8486 13.5199 16.0084 13.3218 16.1168C13.1309 16.227 12.9144 16.285 12.694 16.285C12.4736 16.285 12.2571 16.227 12.0662 16.1168L3.0388 10.2157C2.86258 10.1019 2.7177 9.94576 2.61737 9.76153C2.51705 9.57729 2.46449 9.37086 2.46449 9.16108C2.46449 8.9513 2.51705 8.74487 2.61737 8.56064C2.7177 8.3764 2.86258 8.22024 3.0388 8.10642L12.0913 2.25555C12.2822 2.14536 12.4987 2.08734 12.7191 2.08734C12.9395 2.08734 13.156 2.14536 13.3469 2.25555C13.545 2.36397 13.7102 2.52382 13.8251 2.71828C13.94 2.91273 14.0004 3.13457 13.9998 3.36044L13.9746 15.0119Z" fill="white" stroke="white" stroke-linecap="round" stroke-linejoin="round"/>
</svg>
