<svg width="15" height="19" viewBox="0 0 15 19" fill="none" xmlns="http://www.w3.org/2000/svg">
<path d="M13.9998 1V17.3222" stroke="white" stroke-width="1.5" stroke-linecap="round" stroke-linejoin="round"/>
<path d="M1.02487 15.0119C1.02426 15.2378 1.08458 15.4597 1.19948 15.6541C1.31438 15.8486 1.47961 16.0084 1.67776 16.1168C1.86863 16.227 2.08514 16.285 2.30553 16.285C2.52593 16.285 2.74244 16.227 2.93331 16.1168L11.9607 10.2157C12.1369 10.1019 12.2818 9.94576 12.3821 9.76153C12.4825 9.57729 12.535 9.37086 12.535 9.16108C12.535 8.9513 12.4825 8.74487 12.3821 8.56064C12.2818 8.3764 12.1369 8.22024 11.9607 8.10642L2.9082 2.25555C2.71733 2.14536 2.50082 2.08734 2.28042 2.08734C2.06003 2.08734 1.84351 2.14536 1.65265 2.25555C1.4545 2.36397 1.28927 2.52382 1.17437 2.71828C1.05947 2.91273 0.999144 3.13457 0.999761 3.36044L1.02487 15.0119Z" fill="white" stroke="white" stroke-linecap="round" stroke-linejoin="round"/>
</svg>
