<svg width="12" height="13" viewBox="0 0 12 13" fill="none" xmlns="http://www.w3.org/2000/svg">
<path d="M3.69409 0.829285H1.47339C0.98281 0.829285 0.585114 1.22698 0.585114 1.71756V11.4886C0.585114 11.9792 0.98281 12.3769 1.47339 12.3769H3.69409C4.18467 12.3769 4.58237 11.9792 4.58237 11.4886V1.71756C4.58237 1.22698 4.18467 0.829285 3.69409 0.829285Z" fill="white"/>
<path d="M10.2822 0.829346H8.06147C7.57088 0.829346 7.17319 1.22704 7.17319 1.71763V11.4887C7.17319 11.9793 7.57088 12.377 8.06147 12.377H10.2822C10.7727 12.377 11.1704 11.9793 11.1704 11.4887V1.71763C11.1704 1.22704 10.7727 0.829346 10.2822 0.829346Z" fill="white"/>
</svg>
