<svg width="20" height="14" viewBox="0 0 20 14" fill="none" xmlns="http://www.w3.org/2000/svg">
<path d="M20.0032 11.9046C20.0039 12.1003 19.9513 12.2925 19.851 12.4605C19.7507 12.6286 19.6066 12.7661 19.434 12.8584C19.2643 12.96 19.0703 13.0137 18.8725 13.0137C18.6747 13.0137 18.4807 12.96 18.311 12.8584L10.4964 7.78191C10.3439 7.68457 10.2184 7.55039 10.1315 7.39177C10.0446 7.23314 9.99902 7.05518 9.99902 6.8743C9.99902 6.69342 10.0446 6.51545 10.1315 6.35683C10.2184 6.1982 10.3439 6.06403 10.4964 5.96669L18.311 0.859479C18.4807 0.757805 18.6747 0.704102 18.8725 0.704102C19.0703 0.704102 19.2643 0.757805 19.434 0.859479C19.6066 0.951732 19.7507 1.08927 19.851 1.25731C19.9513 1.42535 20.0039 1.61755 20.0032 1.81324V11.9046Z" fill="white"/>
<path d="M10.0041 11.9046C10.0049 12.1003 9.95229 12.2925 9.85201 12.4605C9.75173 12.6286 9.60755 12.7661 9.43497 12.8584C9.26532 12.96 9.07126 13.0137 8.87348 13.0137C8.6757 13.0137 8.48164 12.96 8.31199 12.8584L0.497344 7.78191C0.344889 7.68457 0.219409 7.55039 0.132487 7.39177C0.0455647 7.23314 1.90735e-06 7.05518 1.90735e-06 6.8743C1.90735e-06 6.69342 0.0455647 6.51545 0.132487 6.35683C0.219409 6.1982 0.344889 6.06403 0.497344 5.96669L8.31199 0.859479C8.48164 0.757805 8.6757 0.704102 8.87348 0.704102C9.07126 0.704102 9.26532 0.757805 9.43497 0.859479C9.603 0.949228 9.74422 1.08195 9.84421 1.2441C9.94421 1.40625 9.99939 1.59203 10.0041 1.78247V11.9046Z" fill="white"/>
</svg>
