<svg width="21" height="14" viewBox="0 0 21 14" fill="none" xmlns="http://www.w3.org/2000/svg">
<path d="M0.28785 11.9046C0.287105 12.1003 0.3397 12.2925 0.439983 12.4605C0.540266 12.6286 0.684446 12.7661 0.857027 12.8584C1.02667 12.96 1.22073 13.0137 1.41851 13.0137C1.61629 13.0137 1.81036 12.96 1.98 12.8584L9.79465 7.78191C9.9471 7.68457 10.0726 7.55039 10.1595 7.39177C10.2464 7.23314 10.292 7.05518 10.292 6.8743C10.292 6.69342 10.2464 6.51545 10.1595 6.35683C10.0726 6.1982 9.9471 6.06403 9.79465 5.96669L1.98 0.859479C1.81036 0.757805 1.61629 0.704102 1.41851 0.704102C1.22073 0.704102 1.02667 0.757805 0.857027 0.859479C0.684446 0.951732 0.540266 1.08927 0.439983 1.25731C0.3397 1.42535 0.287105 1.61755 0.28785 1.81324V11.9046Z" fill="white"/>
<path d="M10.2869 11.9046C10.2861 12.1003 10.3387 12.2925 10.439 12.4605C10.5393 12.6286 10.6835 12.7661 10.8561 12.8584C11.0257 12.96 11.2198 13.0137 11.4175 13.0137C11.6153 13.0137 11.8094 12.96 11.979 12.8584L19.7937 7.78191C19.9461 7.68457 20.0716 7.55039 20.1585 7.39177C20.2455 7.23314 20.291 7.05518 20.291 6.8743C20.291 6.69342 20.2455 6.51545 20.1585 6.35683C20.0716 6.1982 19.9461 6.06403 19.7937 5.96669L11.979 0.859479C11.8094 0.757805 11.6153 0.704102 11.4175 0.704102C11.2198 0.704102 11.0257 0.757805 10.8561 0.859479C10.688 0.949228 10.5468 1.08195 10.4468 1.2441C10.3468 1.40625 10.2916 1.59203 10.2869 1.78247V11.9046Z" fill="white"/>
</svg>
