<svg width="21" height="17" viewBox="0 0 21 17" fill="none" xmlns="http://www.w3.org/2000/svg">
<path d="M4.90577 5.31989H2.73692C2.35344 5.31989 1.98567 5.47222 1.71451 5.74338C1.44335 6.01454 1.29102 6.38231 1.29102 6.76579V9.65759C1.29102 10.0411 1.44335 10.4088 1.71451 10.68C1.98567 10.9512 2.35344 11.1035 2.73692 11.1035H4.90577V5.31989Z" stroke="white" stroke-width="1.5" stroke-linecap="round" stroke-linejoin="round"/>
<path d="M4.90576 11.1035L10.5592 15.1665C10.7687 15.3114 11.0127 15.3984 11.2666 15.4187C11.5205 15.439 11.7753 15.3919 12.0051 15.2821C12.2544 15.1702 12.4668 14.9898 12.6178 14.7621C12.7688 14.5343 12.8522 14.2685 12.8582 13.9953V2.42805C12.8644 2.1684 12.8005 1.91187 12.6733 1.68543C12.5461 1.45898 12.3602 1.27099 12.1353 1.1412C11.9054 1.03141 11.6507 0.984293 11.3968 1.00461C11.1429 1.02492 10.8988 1.11194 10.6894 1.25687L4.90576 5.31986" stroke="white" stroke-width="1.5" stroke-linecap="round" stroke-linejoin="round"/>
<path d="M18.642 3.8739C19.6473 5.0893 20.1629 6.6361 20.0879 8.21161C20.0662 9.9973 19.5669 11.7446 18.642 13.2723" stroke="white" stroke-width="1.5" stroke-linecap="round" stroke-linejoin="round"/>
<path d="M15.75 6.04285C16.2527 6.65054 16.5105 7.42395 16.473 8.2117C16.5105 8.99945 16.2527 9.77286 15.75 10.3806" stroke="white" stroke-width="1.5" stroke-linecap="round" stroke-linejoin="round"/>
</svg>
