<svg width="60" height="60" viewBox="0 0 60 60" fill="none" xmlns="http://www.w3.org/2000/svg">
<path d="M33.1964 40.133C33.4626 40.321 33.7754 40.4323 34.1005 40.4546C34.4256 40.4769 34.7506 40.4094 35.04 40.2595C35.3294 40.1096 35.572 39.883 35.7413 39.6045C35.9106 39.3261 36.0001 39.0064 36 38.6805V20.7783C36.0001 20.4524 35.9106 20.1327 35.7413 19.8543C35.572 19.5758 35.3294 19.3492 35.04 19.1993C34.7506 19.0494 34.4256 18.9819 34.1005 19.0042C33.7754 19.0265 33.4626 19.1378 33.1964 19.3258L20.5156 28.277C20.283 28.4411 20.0932 28.6587 19.9622 28.9115C19.8313 29.1642 19.7629 29.4447 19.7629 29.7294C19.7629 30.0141 19.8313 30.2946 19.9622 30.5473C20.0932 30.8001 20.283 31.0177 20.5156 31.1818L33.1964 40.133ZM34.2222 38.6805L21.5413 29.7294L34.2222 20.7783V38.6805Z" fill="#6D6D6D"/>
<rect x="0.5" y="0.5" width="59" height="59" rx="29.5" stroke="#6D6D6D" stroke-opacity="0.13"/>
</svg>
