<svg width="60" height="60" viewBox="0 0 60 60" fill="none" xmlns="http://www.w3.org/2000/svg">
<path d="M42.4337 40.133C42.6999 40.321 43.0127 40.4323 43.3378 40.4546C43.6629 40.4769 43.9879 40.4094 44.2773 40.2595C44.5667 40.1096 44.8093 39.883 44.9786 39.6045C45.1479 39.3261 45.2374 39.0064 45.2373 38.6805V20.7783C45.2374 20.4524 45.1479 20.1327 44.9786 19.8543C44.8093 19.5758 44.5667 19.3492 44.2773 19.1993C43.9879 19.0494 43.6629 18.9819 43.3378 19.0042C43.0127 19.0265 42.6999 19.1378 42.4337 19.3258L29.7529 28.277C29.5203 28.4411 29.3305 28.6587 29.1996 28.9115C29.0686 29.1642 29.0002 29.4447 29.0002 29.7294C29.0002 30.0141 29.0686 30.2946 29.1996 30.5473C29.3305 30.8001 29.5203 31.0177 29.7529 31.1818L42.4337 40.133ZM43.4595 38.6805L30.7786 29.7294L43.4595 20.7783V38.6805Z" fill="#6D6D6D"/>
<path d="M27.4337 40.133C27.6999 40.321 28.0127 40.4323 28.3378 40.4546C28.6629 40.4769 28.9879 40.4094 29.2773 40.2595C29.5667 40.1096 29.8093 39.883 29.9786 39.6045C30.1479 39.3261 30.2374 39.0064 30.2373 38.6805L30.2373 20.7783C30.2374 20.4524 30.1479 20.1327 29.9786 19.8543C29.8093 19.5758 29.5667 19.3492 29.2773 19.1993C28.9879 19.0494 28.6629 18.9819 28.3378 19.0042C28.0127 19.0265 27.6999 19.1378 27.4337 19.3258L14.7529 28.277C14.5203 28.4411 14.3305 28.6587 14.1996 28.9115C14.0686 29.1642 14.0002 29.4447 14.0002 29.7294C14.0002 30.0141 14.0686 30.2946 14.1996 30.5473C14.3305 30.8001 14.5203 31.0177 14.7529 31.1818L27.4337 40.133ZM28.4595 38.6805L15.7786 29.7294L28.4595 20.7783L28.4595 38.6805Z" fill="#6D6D6D"/>
<rect x="0.5" y="0.5" width="59" height="59" rx="29.5" stroke="#6D6D6D" stroke-opacity="0.13"/>
</svg>
