<svg width="60" height="60" viewBox="0 0 60 60" fill="none" xmlns="http://www.w3.org/2000/svg">
<path d="M18.8036 19.3258C18.5374 19.1377 18.2246 19.0265 17.8995 19.0042C17.5744 18.9819 17.2494 19.0493 16.96 19.1993C16.6706 19.3492 16.428 19.5757 16.2587 19.8542C16.0894 20.1327 15.9999 20.4523 16 20.7782V38.6805C15.9999 39.0064 16.0894 39.326 16.2587 39.6045C16.428 39.8829 16.6706 40.1095 16.96 40.2594C17.2494 40.4093 17.5744 40.4768 17.8995 40.4545C18.2246 40.4322 18.5374 40.3209 18.8036 40.1329L31.4844 31.1818C31.717 31.0176 31.9068 30.8 32.0378 30.5473C32.1687 30.2945 32.2371 30.014 32.2371 29.7293C32.2371 29.4447 32.1687 29.1642 32.0378 28.9114C31.9068 28.6587 31.717 28.4411 31.4844 28.2769L18.8036 19.3258ZM17.7778 20.7782L30.4587 29.7293L17.7778 38.6805V20.7782Z" fill="#6D6D6D"/>
<path d="M33.8036 19.3258C33.5374 19.1377 33.2246 19.0265 32.8995 19.0042C32.5744 18.9819 32.2494 19.0493 31.96 19.1993C31.6706 19.3492 31.428 19.5757 31.2587 19.8542C31.0894 20.1327 30.9999 20.4523 31 20.7782V38.6805C30.9999 39.0064 31.0894 39.326 31.2587 39.6045C31.428 39.8829 31.6706 40.1095 31.96 40.2594C32.2494 40.4093 32.5744 40.4768 32.8995 40.4545C33.2246 40.4322 33.5374 40.3209 33.8036 40.1329L46.4844 31.1818C46.717 31.0176 46.9068 30.8 47.0378 30.5473C47.1687 30.2945 47.2371 30.014 47.2371 29.7293C47.2371 29.4447 47.1687 29.1642 47.0378 28.9114C46.9068 28.6587 46.717 28.4411 46.4844 28.2769L33.8036 19.3258ZM32.7778 20.7782L45.4587 29.7293L32.7778 38.6805V20.7782Z" fill="#6D6D6D"/>
<rect x="0.5" y="0.5" width="59" height="59" rx="29.5" stroke="#6D6D6D" stroke-opacity="0.13"/>
</svg>
