<svg width="22" height="23" viewBox="0 0 22 23" fill="none" xmlns="http://www.w3.org/2000/svg">
<path d="M21 19.9999V12.1739C21.0001 11.6294 20.889 11.0907 20.6735 10.5906C20.458 10.0906 20.1428 9.63982 19.747 9.26591L12.374 2.29791C12.0027 1.94683 11.511 1.75122 11 1.75122C10.489 1.75122 9.99734 1.94683 9.626 2.29791L2.253 9.26591C1.85722 9.63982 1.54195 10.0906 1.3265 10.5906C1.11104 11.0907 0.999942 11.6294 1 12.1739V19.9999C1 20.5303 1.21071 21.039 1.58579 21.4141C1.96086 21.7892 2.46957 21.9999 3 21.9999H19C19.5304 21.9999 20.0391 21.7892 20.4142 21.4141C20.7893 21.039 21 20.5303 21 19.9999Z" stroke="white" stroke-width="2" stroke-linecap="round" stroke-linejoin="round"/>
</svg>
