<svg width="21" height="19" viewBox="0 0 21 19" fill="none" xmlns="http://www.w3.org/2000/svg">
<path d="M1.19159 2.8125C1.19159 2.26549 1.40889 1.74089 1.79569 1.35409C2.18248 0.967299 2.70709 0.75 3.25409 0.75H7.05459C8.37184 0.75 9.47459 1.52 10.2322 2.378C10.796 3.016 11.4766 3.5 12.1916 3.5H18.3791C18.9261 3.5 19.4507 3.7173 19.8375 4.10409C20.2243 4.49089 20.4416 5.01549 20.4416 5.5625V6.4425C21.2253 6.80687 21.7341 7.647 21.6186 8.56825L20.7386 15.6138C20.6346 16.4457 20.2302 17.2109 19.6014 17.7655C18.9727 18.3201 18.1629 18.6258 17.3245 18.625H4.30734C3.46941 18.6251 2.6603 18.3191 2.0321 17.7646C1.4039 17.2101 0.999873 16.4452 0.89597 15.6138L0.0159695 8.56825C-0.0382426 8.13511 0.0463699 7.69593 0.257629 7.31394C0.468888 6.93194 0.795898 6.62682 1.19159 6.4425V2.8125ZM2.56659 6.25H19.0666V5.5625C19.0666 5.38016 18.9942 5.2053 18.8652 5.07636C18.7363 4.94743 18.5614 4.875 18.3791 4.875H12.1916C10.8661 4.875 9.84035 4.01012 9.20234 3.28825C8.58084 2.58425 7.81909 2.125 7.05459 2.125H3.25409C3.07176 2.125 2.89689 2.19743 2.76796 2.32636C2.63903 2.4553 2.56659 2.63016 2.56659 2.8125V6.25ZM2.06197 7.625C1.9645 7.62503 1.86816 7.64578 1.77933 7.68588C1.69049 7.72597 1.6112 7.7845 1.5467 7.85757C1.48221 7.93065 1.43399 8.0166 1.40525 8.10973C1.3765 8.20286 1.36788 8.30104 1.37997 8.39775L2.25997 15.4432C2.32232 15.9422 2.56482 16.4012 2.94185 16.7339C3.31889 17.0667 3.80449 17.2502 4.30734 17.25H17.3258C17.8287 17.2502 18.3143 17.0667 18.6913 16.7339C19.0684 16.4012 19.3109 15.9422 19.3732 15.4432L20.2532 8.39775C20.2653 8.30104 20.2567 8.20286 20.2279 8.10973C20.1992 8.0166 20.151 7.93065 20.0865 7.85757C20.022 7.7845 19.9427 7.72597 19.8539 7.68588C19.765 7.64578 19.6687 7.62503 19.5712 7.625H2.06197Z" fill="white"/>
</svg>
