<svg width="21" height="22" viewBox="0 0 21 22" fill="none" xmlns="http://www.w3.org/2000/svg">
<path d="M16.8207 3.27786H3.72709L5.14556 1.8703C5.35103 1.66484 5.46645 1.38617 5.46645 1.0956C5.46645 0.805027 5.35103 0.526357 5.14556 0.320893C4.9401 0.115429 4.66143 0 4.37086 0C4.08029 0 3.80162 0.115429 3.59615 0.320893L0.322755 3.59429C0.220485 3.69573 0.139311 3.81641 0.0839157 3.94937C0.0285203 4.08234 0 4.22495 0 4.369C0 4.51304 0.0285203 4.65565 0.0839157 4.78862C0.139311 4.92158 0.220485 5.04226 0.322755 5.1437L3.59615 8.4171C3.69759 8.51937 3.81827 8.60054 3.95123 8.65594C4.0842 8.71133 4.22682 8.73985 4.37086 8.73985C4.5149 8.73985 4.65752 8.71133 4.79048 8.65594C4.92345 8.60054 5.04413 8.51937 5.14556 8.4171C5.24783 8.31566 5.32901 8.19498 5.3844 8.06202C5.4398 7.92905 5.46832 7.78644 5.46832 7.64239C5.46832 7.49835 5.4398 7.35573 5.3844 7.22277C5.32901 7.0898 5.24783 6.96912 5.14556 6.86769L3.72709 5.46013H16.8207C17.0442 5.45579 17.2664 5.49553 17.4746 5.57709C17.6828 5.65864 17.8729 5.78041 18.034 5.93544C18.1951 6.09047 18.3241 6.27572 18.4136 6.48061C18.5031 6.6855 18.5513 6.90602 18.5556 7.12956V9.82466C18.5556 10.114 18.6705 10.3916 18.8752 10.5962C19.0798 10.8008 19.3573 10.9158 19.6467 10.9158C19.9361 10.9158 20.2136 10.8008 20.4183 10.5962C20.6229 10.3916 20.7378 10.114 20.7378 9.82466V7.12956C20.7336 6.61944 20.6288 6.11517 20.4297 5.64552C20.2305 5.17588 19.9408 4.75007 19.577 4.3924C19.2133 4.03473 18.7826 3.75222 18.3097 3.56098C17.8368 3.36975 17.3308 3.27355 16.8207 3.27786ZM17.148 13.4145C16.9426 13.209 16.6639 13.0936 16.3733 13.0936C16.0827 13.0936 15.8041 13.209 15.5986 13.4145C15.3932 13.6199 15.2777 13.8986 15.2777 14.1892C15.2777 14.4798 15.3932 14.7584 15.5986 14.9639L17.0171 16.3715H3.92349C3.69995 16.3758 3.47774 16.3361 3.26956 16.2545C3.06138 16.1729 2.87131 16.0512 2.7102 15.8961C2.54909 15.7411 2.4201 15.5559 2.33061 15.351C2.24111 15.1461 2.19285 14.9256 2.18859 14.702V12.0069C2.18859 11.7175 2.07363 11.44 1.86901 11.2354C1.66438 11.0307 1.38685 10.9158 1.09746 10.9158C0.808073 10.9158 0.530539 11.0307 0.325912 11.2354C0.121285 11.44 0.00632676 11.7175 0.00632676 12.0069V14.702C0.0106074 15.2121 0.115325 15.7164 0.314502 16.1861C0.513678 16.6557 0.803411 17.0815 1.16716 17.4392C1.5309 17.7968 1.96154 18.0794 2.43447 18.2706C2.90741 18.4618 3.41338 18.558 3.92349 18.5537H17.0171L15.5986 19.9613C15.4963 20.0627 15.4152 20.1834 15.3598 20.3164C15.3044 20.4493 15.2759 20.5919 15.2759 20.736C15.2759 20.88 15.3044 21.0226 15.3598 21.1556C15.4152 21.2886 15.4963 21.4093 15.5986 21.5107C15.7 21.613 15.8207 21.6941 15.9537 21.7495C16.0867 21.8049 16.2293 21.8334 16.3733 21.8334C16.5174 21.8334 16.66 21.8049 16.7929 21.7495C16.9259 21.6941 17.0466 21.613 17.148 21.5107L20.4214 18.2373C20.5237 18.1359 20.6049 18.0152 20.6603 17.8822C20.7157 17.7492 20.7442 17.6066 20.7442 17.4626C20.7442 17.3185 20.7157 17.1759 20.6603 17.043C20.6049 16.91 20.5237 16.7893 20.4214 16.6879L17.148 13.4145Z" fill="white"/>
</svg>
