<svg width="25" height="23" viewBox="0 0 25 23" fill="none" xmlns="http://www.w3.org/2000/svg">
<path d="M18.8212 18.5556H5.72758L7.14605 19.9632C7.35151 20.1687 7.46694 20.4473 7.46694 20.7379C7.46694 21.0285 7.35151 21.3071 7.14605 21.5126C6.94059 21.7181 6.66192 21.8335 6.37135 21.8335C6.08078 21.8335 5.80211 21.7181 5.59664 21.5126L2.32324 18.2392C2.22097 18.1378 2.1398 18.0171 2.0844 17.8841C2.02901 17.7512 2.00049 17.6085 2.00049 17.4645C2.00049 17.3205 2.02901 17.1778 2.0844 17.0449C2.1398 16.9119 2.22097 16.7912 2.32324 16.6898L5.59664 13.4164C5.69808 13.3141 5.81876 13.233 5.95172 13.1776C6.08469 13.1222 6.2273 13.0936 6.37135 13.0936C6.51539 13.0936 6.65801 13.1222 6.79097 13.1776C6.92394 13.233 7.04462 13.3141 7.14605 13.4164C7.24832 13.5178 7.32949 13.6385 7.38489 13.7715C7.44029 13.9044 7.46881 14.0471 7.46881 14.1911C7.46881 14.3351 7.44029 14.4778 7.38489 14.6107C7.32949 14.7437 7.24832 14.8644 7.14605 14.9658L5.72758 16.3734H18.8212C19.0447 16.3777 19.2669 16.338 19.4751 16.2564C19.6833 16.1749 19.8734 16.0531 20.0345 15.8981C20.1956 15.743 20.3246 15.5578 20.4141 15.3529C20.5036 15.148 20.5518 14.9275 20.5561 14.7039V12.0088C20.5561 11.7195 20.671 11.4419 20.8757 11.2373C21.0803 11.0327 21.3578 10.9177 21.6472 10.9177C21.9366 10.9177 22.2141 11.0327 22.4188 11.2373C22.6234 11.4419 22.7383 11.7195 22.7383 12.0088V14.7039C22.7341 15.2141 22.6293 15.7183 22.4302 16.188C22.231 16.6576 21.9413 17.0834 21.5775 17.4411C21.2138 17.7988 20.7831 18.0813 20.3102 18.2725C19.8373 18.4637 19.3313 18.56 18.8212 18.5556ZM19.1485 8.41901C18.943 8.62448 18.6644 8.7399 18.3738 8.7399C18.0832 8.7399 17.8046 8.62448 17.5991 8.41901C17.3936 8.21355 17.2782 7.93488 17.2782 7.64431C17.2782 7.35374 17.3936 7.07507 17.5991 6.8696L19.0176 5.46204H5.92398C5.70044 5.4577 5.47823 5.49744 5.27005 5.579C5.06187 5.66056 4.8718 5.78233 4.71069 5.93735C4.54958 6.09238 4.42059 6.27764 4.33109 6.48253C4.24159 6.68742 4.19334 6.90793 4.18908 7.13148V9.82657C4.18908 10.116 4.07412 10.3935 3.86949 10.5981C3.66487 10.8027 3.38733 10.9177 3.09795 10.9177C2.80856 10.9177 2.53103 10.8027 2.3264 10.5981C2.12177 10.3935 2.00682 10.116 2.00682 9.82657V7.13148C2.0111 6.62136 2.11581 6.11708 2.31499 5.64744C2.51417 5.17779 2.8039 4.75198 3.16765 4.39431C3.53139 4.03665 3.96203 3.75413 4.43496 3.5629C4.9079 3.37166 5.41387 3.27546 5.92398 3.27978H19.0176L17.5991 1.87221C17.4968 1.77078 17.4157 1.6501 17.3603 1.51714C17.3049 1.38417 17.2763 1.24155 17.2763 1.09751C17.2763 0.953469 17.3049 0.810852 17.3603 0.677888C17.4157 0.544923 17.4968 0.424244 17.5991 0.322809C17.7005 0.220538 17.8212 0.139363 17.9542 0.0839673C18.0871 0.0285719 18.2298 5.24087e-05 18.3738 5.24087e-05C18.5178 5.24087e-05 18.6605 0.0285719 18.7934 0.0839673C18.9264 0.139363 19.0471 0.220538 19.1485 0.322809L22.4219 3.59621C22.5242 3.69764 22.6054 3.81832 22.6607 3.95129C22.7161 4.08425 22.7447 4.22687 22.7447 4.37091C22.7447 4.51495 22.7161 4.65757 22.6607 4.79053C22.6054 4.9235 22.5242 5.04418 22.4219 5.14561L19.1485 8.41901Z" fill="#555555"/>
<line x1="1.89998" y1="1.79214" x2="22.7609" y2="20.3394" stroke="#555555" stroke-width="2.5" stroke-linecap="round"/>
</svg>
