<svg width="60" height="60" viewBox="0 0 60 60" fill="none" xmlns="http://www.w3.org/2000/svg">
<path d="M21.8036 19.3258C21.5374 19.1377 21.2246 19.0265 20.8995 19.0042C20.5744 18.9819 20.2494 19.0493 19.96 19.1993C19.6706 19.3492 19.428 19.5757 19.2587 19.8542C19.0894 20.1327 18.9999 20.4523 19 20.7782V38.6805C18.9999 39.0064 19.0894 39.326 19.2587 39.6045C19.428 39.8829 19.6706 40.1095 19.96 40.2594C20.2494 40.4093 20.5744 40.4768 20.8995 40.4545C21.2246 40.4322 21.5374 40.3209 21.8036 40.1329L34.4844 31.1818C34.717 31.0176 34.9068 30.8 35.0378 30.5473C35.1687 30.2945 35.2371 30.014 35.2371 29.7293C35.2371 29.4447 35.1687 29.1642 35.0378 28.9114C34.9068 28.6587 34.717 28.4411 34.4844 28.2769L21.8036 19.3258ZM20.7778 20.7782L33.4587 29.7293L20.7778 38.6805V20.7782Z" fill="#6D6D6D"/>
<path d="M40.3334 19.9514C40.3334 19.7156 40.2398 19.4895 40.0731 19.3228C39.9064 19.1562 39.6803 19.0625 39.4446 19.0625C39.2088 19.0625 38.9827 19.1562 38.816 19.3228C38.6493 19.4895 38.5557 19.7156 38.5557 19.9514V39.5069C38.5557 39.7427 38.6493 39.9688 38.816 40.1355C38.9827 40.3022 39.2088 40.3958 39.4446 40.3958C39.6803 40.3958 39.9064 40.3022 40.0731 40.1355C40.2398 39.9688 40.3334 39.7427 40.3334 39.5069V19.9514Z" fill="#6D6D6D"/>
<rect x="0.5" y="0.5" width="59" height="59" rx="29.5" stroke="#6D6D6D" stroke-opacity="0.13"/>
</svg>
