<svg width="19" height="15" viewBox="0 0 19 15" fill="none" xmlns="http://www.w3.org/2000/svg">
<path d="M8.66733 2.78497L9.5 4.03698L10.3327 2.78497C11.0463 1.71197 12.3249 1 13.8182 1C16.1579 1 18 2.82459 18 4.95821C18 5.88338 17.5506 6.9098 16.7219 7.9911C15.9024 9.06034 14.7865 10.0857 13.6336 10.9883C12.486 11.8868 11.3331 12.6393 10.4643 13.1683C10.076 13.4048 9.74632 13.5954 9.5018 13.7332C9.25706 13.5943 8.92694 13.4021 8.53795 13.1639C7.66881 12.6315 6.51556 11.875 5.3675 10.9737C4.21406 10.0682 3.09752 9.04108 2.27759 7.97303C1.44778 6.8921 1 5.87136 1 4.95821C1 2.82459 2.84207 1 5.18182 1C6.6751 1 7.95372 1.71197 8.66733 2.78497Z" stroke="white" stroke-width="2"/>
</svg>
