<svg width="60" height="60" viewBox="0 0 60 60" fill="none" xmlns="http://www.w3.org/2000/svg">
<rect width="60" height="60" rx="30" fill="white" fill-opacity="0.13"/>
<path d="M24.5625 19C25.5073 19 26.4135 19.3753 27.0816 20.0434C27.7497 20.7115 28.125 21.6177 28.125 22.5625V36.8125C28.125 37.7573 27.7497 38.6635 27.0816 39.3316C26.4135 39.9997 25.5073 40.375 24.5625 40.375C23.6177 40.375 22.7115 39.9997 22.0434 39.3316C21.3753 38.6635 21 37.7573 21 36.8125V22.5625C21 21.6177 21.3753 20.7115 22.0434 20.0434C22.7115 19.3753 23.6177 19 24.5625 19ZM36.4375 19C37.3823 19 38.2885 19.3753 38.9566 20.0434C39.6247 20.7115 40 21.6177 40 22.5625V36.8125C40 37.7573 39.6247 38.6635 38.9566 39.3316C38.2885 39.9997 37.3823 40.375 36.4375 40.375C35.4927 40.375 34.5865 39.9997 33.9184 39.3316C33.2503 38.6635 32.875 37.7573 32.875 36.8125V22.5625C32.875 21.6177 33.2503 20.7115 33.9184 20.0434C34.5865 19.3753 35.4927 19 36.4375 19Z" fill="white"/>
</svg>
