<svg width="60" height="60" viewBox="0 0 60 60" fill="none" xmlns="http://www.w3.org/2000/svg">
<rect x="0.5" y="0.5" width="59" height="59" rx="29.5" stroke="#6D6D6D" stroke-opacity="0.13"/>
<path d="M37.5297 40.1329C37.7959 40.3209 38.1086 40.4322 38.4338 40.4545C38.7589 40.4768 39.0839 40.4093 39.3733 40.2594C39.6627 40.1095 39.9053 39.8829 40.0746 39.6045C40.2439 39.326 40.3334 39.0064 40.3333 38.6805V20.7782C40.3334 20.4523 40.2439 20.1327 40.0746 19.8542C39.9053 19.5757 39.6627 19.3492 39.3733 19.1993C39.0839 19.0493 38.7589 18.9819 38.4338 19.0042C38.1086 19.0265 37.7959 19.1377 37.5297 19.3258L24.8488 28.2769C24.6163 28.4411 24.4265 28.6587 24.2955 28.9114C24.1646 29.1642 24.0962 29.4447 24.0962 29.7293C24.0962 30.014 24.1646 30.2945 24.2955 30.5473C24.4265 30.8 24.6163 31.0176 24.8488 31.1818L37.5297 40.1329ZM38.5555 38.6805L25.8746 29.7293L38.5555 20.7782V38.6805Z" fill="#6D6D6D"/>
<path d="M19 39.5069C19 39.7427 19.0937 39.9688 19.2603 40.1355C19.427 40.3022 19.6531 40.3958 19.8889 40.3958C20.1246 40.3958 20.3507 40.3022 20.5174 40.1355C20.6841 39.9688 20.7778 39.7427 20.7778 39.5069V19.9514C20.7778 19.7156 20.6841 19.4895 20.5174 19.3228C20.3507 19.1562 20.1246 19.0625 19.8889 19.0625C19.6531 19.0625 19.427 19.1562 19.2603 19.3228C19.0937 19.4895 19 19.7156 19 19.9514V39.5069Z" fill="#6D6D6D"/>
</svg>
