<svg width="25" height="25" viewBox="0 0 25 25" fill="none" xmlns="http://www.w3.org/2000/svg">
<mask id="mask0_263_21" style="mask-type:alpha" maskUnits="userSpaceOnUse" x="0" y="0" width="25" height="25">
<rect width="25" height="25" rx="6" fill="white"/>
</mask>
<g mask="url(#mask0_263_21)">
<path d="M7.03125 8.87476H6.53125V9.37476V16.406C6.53125 16.9928 6.0555 17.4685 5.46875 17.4685C4.882 17.4685 4.40625 16.9928 4.40625 16.406V9.37476V8.87476H3.90625C3.3195 8.87476 2.84375 8.399 2.84375 7.81226C2.84375 7.22551 3.3195 6.74976 3.90625 6.74976H4.40625V6.24976V3.90601C4.40625 3.31926 4.882 2.84351 5.46875 2.84351C6.0555 2.84351 6.53125 3.31926 6.53125 3.90601V6.24976V6.74976H7.03125C7.618 6.74976 8.09375 7.22551 8.09375 7.81226C8.09375 8.399 7.618 8.87476 7.03125 8.87476ZM14.0625 15.1248H13.5625V15.6248V16.406C13.5625 16.9928 13.0867 17.4685 12.5 17.4685C11.9133 17.4685 11.4375 16.9928 11.4375 16.406V15.6248V15.1248H10.9375C10.3508 15.1248 9.875 14.649 9.875 14.0623C9.875 13.4755 10.3508 12.9998 10.9375 12.9998H11.4375V12.4998V3.90601C11.4375 3.31926 11.9133 2.84351 12.5 2.84351C13.0867 2.84351 13.5625 3.31926 13.5625 3.90601V12.4998V12.9998H14.0625C14.6492 12.9998 15.125 13.4755 15.125 14.0623C15.125 14.649 14.6492 15.1248 14.0625 15.1248ZM21.0938 8.87476H20.5938V9.37476V16.406C20.5938 16.9928 20.118 17.4685 19.5312 17.4685C18.9445 17.4685 18.4688 16.9928 18.4688 16.406V9.37476V8.87476H17.9688C17.382 8.87476 16.9062 8.399 16.9062 7.81226C16.9062 7.22551 17.382 6.74976 17.9688 6.74976H18.4688V6.24976V3.90601C18.4688 3.31926 18.9445 2.84351 19.5312 2.84351C20.118 2.84351 20.5938 3.31926 20.5938 3.90601V6.24976V6.74976H21.0938C21.6805 6.74976 22.1562 7.22551 22.1562 7.81226C22.1562 8.399 21.6805 8.87476 21.0938 8.87476ZM5.46875 22.156C4.882 22.156 4.40625 21.6803 4.40625 21.0935C4.40625 20.5067 4.88198 20.031 5.46875 20.031C6.0556 20.031 6.53125 20.5067 6.53125 21.0935C6.53125 21.6803 6.05558 22.156 5.46875 22.156ZM12.5 22.156C11.9133 22.156 11.4375 21.6803 11.4375 21.0935C11.4375 20.5067 11.9132 20.031 12.5 20.031C13.0868 20.031 13.5625 20.5067 13.5625 21.0935C13.5625 21.6803 13.0868 22.156 12.5 22.156ZM19.5312 22.156C18.9445 22.156 18.4688 21.6803 18.4688 21.0935C18.4688 20.5067 18.9445 20.031 19.5312 20.031C20.1181 20.031 20.5938 20.5067 20.5938 21.0935C20.5938 21.6803 20.1181 22.156 19.5312 22.156Z" stroke="white"/>
</g>
</svg>
