<svg width="27" height="22" viewBox="0 0 27 22" fill="none" xmlns="http://www.w3.org/2000/svg">
<path d="M26.5162 17.1693C26.7023 17.3555 26.8069 17.608 26.8069 17.8713C26.8069 18.1347 26.7023 18.3872 26.5162 18.5734L23.5376 21.552C23.3988 21.6908 23.2218 21.7854 23.0293 21.8237C22.8367 21.862 22.637 21.8423 22.4556 21.7672C22.2742 21.692 22.1191 21.5648 22.01 21.4015C21.9009 21.2382 21.8427 21.0463 21.8427 20.8499V18.8642H18.3822C18.0662 18.8639 17.7548 18.7883 17.4738 18.6437C17.1928 18.4991 16.9503 18.2896 16.7664 18.0327L7.43198 4.96416L0.99285 4.96429C0.72953 4.96429 0.476994 4.85968 0.290799 4.67349C0.104603 4.48729 0 4.23476 0 3.97144C0 3.70812 0.104603 3.45558 0.290799 3.26939C0.476994 3.08319 0.72953 2.97859 0.99285 2.97859H7.43185C7.74787 2.97888 8.05928 3.05446 8.34027 3.19906C8.62127 3.34366 8.86378 3.55312 9.04772 3.8101L18.3822 16.8786H21.8427V14.8928C21.8427 14.6964 21.9009 14.5044 22.01 14.3412C22.1191 14.1779 22.2742 14.0506 22.4556 13.9755C22.637 13.9003 22.8367 13.8807 23.0293 13.919C23.2218 13.9573 23.3988 14.0519 23.5376 14.1907L26.5162 17.1693ZM14.7701 8.31304C14.8762 8.38886 14.9962 8.44304 15.1232 8.47247C15.2503 8.5019 15.3818 8.50602 15.5105 8.48458C15.6391 8.46315 15.7622 8.41658 15.8728 8.34754C15.9835 8.27849 16.0794 8.18833 16.1552 8.08221L18.3822 4.96429H21.8427V6.94999C21.8427 7.14636 21.9009 7.33832 22.01 7.5016C22.1191 7.66488 22.2742 7.79214 22.4556 7.86729C22.637 7.94244 22.8367 7.9621 23.0293 7.92379C23.2218 7.88548 23.3988 7.79091 23.5376 7.65205L26.5162 4.6735C26.7023 4.48729 26.8069 4.23475 26.8069 3.97144C26.8069 3.70812 26.7023 3.45558 26.5162 3.26937L23.5376 0.290817C23.3988 0.151957 23.2218 0.0573921 23.0293 0.0190798C22.8367 -0.0192326 22.637 0.000429198 22.4556 0.0755786C22.2742 0.150728 22.1191 0.27799 22.01 0.44127C21.9009 0.60455 21.8427 0.796514 21.8427 0.992886V2.97859H18.3822C18.0662 2.9789 17.7548 3.05449 17.4738 3.19909C17.1928 3.34368 16.9503 3.55314 16.7664 3.8101L14.5393 6.92789C14.4635 7.03399 14.4094 7.15398 14.3799 7.281C14.3505 7.40803 14.3464 7.5396 14.3679 7.66822C14.3893 7.79683 14.4358 7.91996 14.5049 8.03058C14.5739 8.1412 14.664 8.23726 14.7701 8.31304ZM11.044 13.5299C10.9379 13.4541 10.8179 13.3999 10.6909 13.3705C10.5639 13.3411 10.4323 13.3369 10.3037 13.3584C10.1751 13.3798 10.0519 13.4263 9.9413 13.4953C9.83068 13.5643 9.73473 13.6545 9.65894 13.7606L7.43185 16.8785H0.99285C0.72953 16.8785 0.476994 16.9831 0.290799 17.1693C0.104603 17.3555 0 17.608 0 17.8713C0 18.1347 0.104603 18.3872 0.290799 18.5734C0.476994 18.7596 0.72953 18.8642 0.99285 18.8642H7.43185C7.74787 18.8639 8.05927 18.7883 8.34026 18.6437C8.62126 18.4991 8.86377 18.2896 9.04772 18.0327L11.2748 14.9149C11.3506 14.8088 11.4047 14.6888 11.4342 14.5618C11.4636 14.4347 11.4677 14.3032 11.4462 14.1746C11.4248 14.0459 11.3782 13.9228 11.3092 13.8122C11.2402 13.7016 11.1501 13.6056 11.044 13.5299Z" fill="#555555"/>
</svg>
