<svg width="25" height="22" viewBox="0 0 25 22" fill="none" xmlns="http://www.w3.org/2000/svg">
<path d="M16.9888 21.8428C21.2687 19.9655 24.2685 15.8858 24.2685 10.9214C24.2685 5.95701 21.2687 1.87726 16.9888 0V2.42697C19.8854 4.10887 21.8415 7.33796 21.8415 10.9214C21.8415 14.5048 19.8854 17.7339 16.9888 19.4158V21.8428Z" fill="#555555"/>
<path d="M16.9888 4.85552V16.9904C18.4753 15.6556 19.4158 13.072 19.4158 10.923C19.4158 8.77387 18.4753 6.19036 16.9888 4.85552ZM2.42697 16.9904H5.69975L12.6749 21.6405C12.8578 21.762 13.0703 21.8318 13.2896 21.8425C13.509 21.8531 13.7272 21.8043 13.9211 21.7011C14.1148 21.5975 14.2767 21.4431 14.3895 21.2546C14.5024 21.0661 14.5619 20.8505 14.5618 20.6309V1.21506C14.5617 0.995557 14.5021 0.780197 14.3893 0.591915C14.2764 0.403634 14.1146 0.249481 13.9211 0.145877C13.7276 0.0422722 13.5096 -0.00690476 13.2904 0.00358364C13.0711 0.014072 12.8588 0.0838329 12.6761 0.205436L5.69975 4.85552H2.42697C1.0885 4.85552 0 5.94402 0 7.28249V14.5634C0 15.9019 1.0885 16.9904 2.42697 16.9904ZM2.42697 7.28249H6.06744C6.10748 7.28249 6.14146 7.26308 6.18029 7.25944C6.34169 7.24298 6.49833 7.19516 6.64141 7.11867C6.67297 7.10047 6.71058 7.09804 6.74092 7.07863L12.1349 3.48185V18.3641L6.74092 14.7673C6.71058 14.7467 6.67297 14.743 6.64141 14.7272C6.49811 14.6492 6.34036 14.6013 6.17786 14.5865C6.13903 14.5828 6.10627 14.5634 6.06744 14.5634H2.42697V7.28249Z" fill="#555555"/>
</svg>
