<svg width="27" height="24" viewBox="0 0 27 24" fill="none" xmlns="http://www.w3.org/2000/svg">
<path d="M17.9888 22.8428C22.2687 20.9655 25.2685 16.8858 25.2685 11.9214C25.2685 6.95701 22.2687 2.87726 17.9888 1V3.42697C20.8854 5.10887 22.8415 8.33796 22.8415 11.9214C22.8415 15.5048 20.8854 18.7339 17.9888 20.4158V22.8428Z" fill="#555555"/>
<path d="M17.9888 5.85552V17.9904C19.4753 16.6556 20.4158 14.072 20.4158 11.923C20.4158 9.77387 19.4753 7.19036 17.9888 5.85552ZM3.42697 17.9904H6.69975L13.6749 22.6405C13.8578 22.762 14.0703 22.8318 14.2896 22.8425C14.509 22.8531 14.7272 22.8043 14.9211 22.7011C15.1148 22.5975 15.2767 22.4431 15.3895 22.2546C15.5024 22.0661 15.5619 21.8505 15.5618 21.6309V2.21506C15.5617 1.99556 15.5021 1.7802 15.3893 1.59192C15.2764 1.40363 15.1146 1.24948 14.9211 1.14588C14.7276 1.04227 14.5096 0.993095 14.2904 1.00358C14.0711 1.01407 13.8588 1.08383 13.6761 1.20544L6.69975 5.85552H3.42697C2.0885 5.85552 1 6.94402 1 8.28249V15.5634C1 16.9019 2.0885 17.9904 3.42697 17.9904ZM3.42697 8.28249H7.06744C7.10748 8.28249 7.14146 8.26308 7.18029 8.25944C7.3417 8.24298 7.49833 8.19516 7.64141 8.11867C7.67297 8.10047 7.71058 8.09804 7.74092 8.07863L13.1349 4.48185V19.3641L7.74092 15.7673C7.71058 15.7467 7.67297 15.743 7.64141 15.7272C7.49811 15.6492 7.34036 15.6013 7.17786 15.5865C7.13903 15.5828 7.10627 15.5634 7.06744 15.5634H3.42697V8.28249Z" fill="#555555"/>
<path d="M2 2.00011L25 22.4471" stroke="#555555" stroke-width="2.5" stroke-linecap="round"/>
</svg>
